<svg width="25" height="25" viewBox="0 0 25 25" fill="none" xmlns="http://www.w3.org/2000/svg">
<path d="M18.75 19.979C17.0625 19.979 16 20.6085 15.0625 21.1781C14.25 21.6727 13.5875 22.0773 12.5 22.0773C11.375 22.0773 10.75 21.7026 9.9375 21.1781C9 20.6085 7.975 19.979 6.25 19.979C4.525 19.979 3.5 20.6085 2.5625 21.1781C2.025 21.5078 1.55 21.7926 0.975 21.9574C0.4125 22.1073 0 22.6469 0 23.3213V23.4712C0 24.3705 0.7 25.015 1.425 24.8351C2.35 24.6103 3.05 24.1906 3.6875 23.801C4.5 23.3064 5.15 22.9017 6.25 22.9017C7.35 22.9017 8 23.2764 8.8125 23.801C9.75 24.3705 10.775 25 12.5 25C14.225 25 15.25 24.3705 16.1875 23.801C17 23.3064 17.6625 22.9017 18.75 22.9017C19.875 22.9017 20.5 23.2764 21.3125 23.801C21.9625 24.1906 22.6625 24.6253 23.6 24.8501C23.7689 24.8896 23.9429 24.8842 24.1098 24.8342C24.2768 24.7842 24.4325 24.6909 24.5661 24.5608C24.6996 24.4307 24.8077 24.267 24.8827 24.0813C24.9576 23.8957 24.9977 23.6925 25 23.4862V23.3513C25 22.6619 24.575 22.1223 24.0125 21.9724C23.4375 21.8225 22.975 21.5378 22.4375 21.193C21.5 20.6085 20.4375 19.979 18.75 19.979ZM18.75 13.3094C17.0625 13.3094 16 13.9538 15.0625 14.5084C14.25 14.988 13.5875 15.4077 12.5 15.4077C11.375 15.4077 10.75 15.033 9.9375 14.5084C9 13.9388 7.975 13.3094 6.25 13.3094C4.525 13.3094 3.5 13.9538 2.5625 14.5084C2.025 14.8231 1.55 15.1229 0.9625 15.2878C0.4125 15.4376 0 15.9772 0 16.6517V16.8016C7.14347e-05 17.0087 0.038653 17.2133 0.112938 17.4003C0.187224 17.5873 0.295344 17.7522 0.429436 17.8828C0.563528 18.0134 0.720218 18.1066 0.888109 18.1555C1.056 18.2044 1.23087 18.2078 1.4 18.1655C2.3375 17.9406 3.0375 17.506 3.6875 17.1313C4.5 16.6067 5.125 16.232 6.25 16.232C7.375 16.232 8 16.6067 8.8125 17.1313C9.75 17.7008 10.775 18.3303 12.5 18.3303C14.225 18.3303 15.25 17.6859 16.1875 17.1313C17 16.6067 17.625 16.232 18.75 16.232C19.875 16.232 20.5 16.6067 21.3125 17.1313C21.9625 17.521 22.6625 17.9556 23.6 18.1805C23.7699 18.2202 23.945 18.2144 24.1129 18.1636C24.2807 18.1128 24.4371 18.0181 24.5708 17.8863C24.7046 17.7546 24.8124 17.589 24.8866 17.4015C24.9608 17.214 24.9995 17.0091 25 16.8016V16.6667C25 15.9772 24.575 15.4376 24.0125 15.2878C23.4375 15.1379 22.975 14.8531 22.4375 14.5084C21.5 13.9388 20.4375 13.3094 18.75 13.3094ZM22.4375 1.19904C21.5 0.629496 20.4625 0 18.75 0C17.0375 0 16 0.629496 15.0625 1.19904C14.25 1.67866 13.5875 2.09832 12.5 2.09832C11.375 2.09832 10.75 1.72362 9.9375 1.19904C9 0.644484 7.975 0 6.25 0C4.525 0 3.5 0.629496 2.5625 1.19904C2.025 1.52878 1.55 1.81355 0.975 1.97842C0.4125 2.1283 0 2.66787 0 3.34233V3.44724C0 4.34652 0.675 5.00599 1.4 4.82614C2.3375 4.60132 3.0375 4.16667 3.6875 3.79197C4.5 3.29736 5.15 2.89269 6.25 2.89269C7.35 2.89269 8 3.26739 8.8125 3.79197C9.75 4.36151 10.775 4.99101 12.5 4.99101C14.225 4.99101 15.25 4.34652 16.1875 3.79197C17 3.31235 17.6625 2.89269 18.75 2.89269C19.875 2.89269 20.5 3.26739 21.3125 3.79197C21.9625 4.18165 22.6625 4.61631 23.6 4.84113C23.7699 4.88087 23.945 4.87512 24.1129 4.82427C24.2807 4.77342 24.4371 4.67874 24.5708 4.547C24.7046 4.41526 24.8124 4.2497 24.8866 4.06218C24.9608 3.87465 24.9995 3.66979 25 3.46223V3.32734C25 2.63789 24.575 2.09832 24.0125 1.94844C23.4375 1.79856 22.975 1.52878 22.4375 1.19904ZM18.75 6.63969C17.0625 6.63969 16 7.28417 15.0625 7.83873C14.25 8.36331 13.625 8.73801 12.5 8.73801C11.375 8.73801 10.75 8.36331 9.9375 7.83873C9 7.26919 7.975 6.63969 6.25 6.63969C4.525 6.63969 3.5 7.28417 2.5625 7.83873C2.025 8.18345 1.5625 8.46822 0.9875 8.6181C0.425 8.76799 0 9.30755 0 9.997V10.1319C7.14347e-05 10.3391 0.038653 10.5436 0.112938 10.7306C0.187224 10.9177 0.295344 11.0825 0.429436 11.2131C0.563528 11.3438 0.720218 11.4369 0.888109 11.4858C1.056 11.5347 1.23087 11.5381 1.4 11.4958C2.3375 11.271 3.0375 10.8363 3.6875 10.4616C4.5 9.98201 5.1625 9.56235 6.25 9.56235C7.3375 9.56235 8 9.93705 8.8125 10.4616C9.75 11.0312 10.775 11.6607 12.5 11.6607C14.225 11.6607 15.25 11.0162 16.1875 10.4616C17 9.98201 17.6625 9.56235 18.75 9.56235C19.875 9.56235 20.5 9.93705 21.3125 10.4616C21.9625 10.8513 22.6625 11.286 23.6 11.5108C23.7689 11.5503 23.9429 11.5449 24.1098 11.4949C24.2768 11.4449 24.4325 11.3516 24.5661 11.2215C24.6996 11.0914 24.8077 10.9277 24.8827 10.742C24.9576 10.5563 24.9977 10.3532 25 10.1469V10.012C25 9.32254 24.575 8.78297 24.0125 8.63309C23.4375 8.48321 22.975 8.19844 22.4375 7.85372C21.5 7.26918 20.4375 6.63969 18.75 6.63969Z" fill="url(#paint0_linear_20_600)"/>
<defs>
<linearGradient id="paint0_linear_20_600" x1="12.5" y1="0" x2="12.5" y2="25" gradientUnits="userSpaceOnUse">
<stop stop-color="#FFBF00"/>
<stop offset="1" stop-color="#F2A60C"/>
</linearGradient>
</defs>
</svg>
