<svg width="25" height="26" viewBox="0 0 25 26" fill="none" xmlns="http://www.w3.org/2000/svg">
<path d="M19.7917 7.09687H18.9375L17.1667 1.76126C17.0201 1.32131 16.7537 0.941141 16.4035 0.672042C16.0534 0.402942 15.6362 0.257854 15.2083 0.256348H13.5417C12.9687 0.256348 12.5 0.769387 12.5 1.39643C12.5 2.02348 12.9687 2.53652 13.5417 2.53652H15.2083L16.7292 7.09687H11.7188L11.3438 5.95678H11.4375C12.0104 5.95678 12.4792 5.44374 12.4792 4.81669C12.4792 4.18965 12.0104 3.67661 11.4375 3.67661H8.33333C7.76042 3.67661 7.29167 4.18965 7.29167 4.81669C7.29167 5.44374 7.76042 5.95678 8.33333 5.95678H9.11458L11.0104 11.6572H10.3125C9.85417 9.11482 7.90625 7.23368 5.46875 7.10827C2.55208 6.94866 0 9.60506 0 12.7973C0 15.9895 2.29167 18.4977 5.20833 18.4977C7.77083 18.4977 9.84375 16.571 10.3125 13.9374H14.6875C15.1458 16.4798 17.0938 18.3609 19.5312 18.4863C22.4479 18.6345 25 15.9895 25 12.7859C25 9.60506 22.7083 7.09687 19.7917 7.09687ZM6.25 13.9374H8.14583C7.70833 15.3397 6.47917 16.3088 5 16.2062C3.44792 16.1036 2.15625 14.667 2.08333 12.9569C2.01042 10.9618 3.40625 9.37704 5.20833 9.37704C6.59375 9.37704 7.72917 10.3233 8.14583 11.6572H6.25C5.67708 11.6572 5.20833 12.1703 5.20833 12.7973C5.20833 13.4243 5.67708 13.9374 6.25 13.9374ZM14.6875 11.6572H13.2292L12.4688 9.37704H15.625C15.1667 10.0383 14.8333 10.8021 14.6875 11.6572ZM19.6667 16.2176C18.0625 16.1492 16.7083 14.6556 16.6667 12.8885C16.6458 11.794 17.0729 10.8364 17.7604 10.1979L18.4062 12.1361C18.6042 12.7289 19.1979 13.0367 19.7396 12.8201C20.2812 12.6035 20.5625 11.9536 20.3646 11.3608L19.7083 9.38844L19.7188 9.37704C20.1364 9.36145 20.5526 9.43866 20.9422 9.60401C21.3318 9.76935 21.6868 10.0194 21.9857 10.3391C22.2845 10.6587 22.5211 11.0413 22.6811 11.4638C22.8411 11.8863 22.9213 12.34 22.9167 12.7973C22.9167 14.7583 21.4792 16.286 19.6667 16.2176ZM11.4583 21.918H7.29167L13.5417 25.3383V23.0581H17.7083L11.4583 19.6378V21.918Z" fill="url(#paint0_linear_14_159)"/>
<defs>
<linearGradient id="paint0_linear_14_159" x1="12.5" y1="0.256348" x2="12.5" y2="25.3383" gradientUnits="userSpaceOnUse">
<stop stop-color="#FFBF00"/>
<stop offset="1" stop-color="#F2A60C"/>
</linearGradient>
</defs>
</svg>
