<svg width="14" height="10" viewBox="0 0 14 10" fill="none" xmlns="http://www.w3.org/2000/svg">
<path d="M11.334 1.6665C11.334 0.933496 10.734 0.333496 10.001 0.333496H8.668C8.301 0.333496 8.001 0.633496 8.001 0.999496C8.001 1.3665 8.301 1.6665 8.668 1.6665H10.001V3.4335L7.681 6.3335H5.334V3.6665C5.334 3.2995 5.034 2.9995 4.668 2.9995H2.667C2.31673 2.99936 1.96986 3.06826 1.64623 3.20224C1.32259 3.33622 1.02853 3.53267 0.780853 3.78035C0.533173 4.02803 0.336729 4.32209 0.202746 4.64572C0.0687631 4.96936 -0.000131222 5.31622 1.87634e-07 5.6665V6.9995C1.87634e-07 7.3665 0.3 7.6665 0.667 7.6665H1.333C1.333 8.7735 2.227 9.6665 3.333 9.6665C4.44 9.6665 5.333 8.7735 5.333 7.6665H7.68C8.087 7.6665 8.467 7.4795 8.72 7.1665L11.04 4.2665C11.233 4.0265 11.333 3.7325 11.333 3.4335L11.334 1.6665ZM3.334 8.3335C3.15744 8.3327 2.98835 8.26215 2.86359 8.1372C2.73883 8.01226 2.66853 7.84306 2.668 7.6665H4.001C4.001 8.0335 3.701 8.3335 3.334 8.3335Z" fill="#9C9C9C"/>
<path d="M2.667 0.999512H4.667C5.034 0.999512 5.334 1.29951 5.334 1.66651C5.334 2.03251 5.034 2.33251 4.668 2.33251H2.667C2.49044 2.33199 2.32124 2.26168 2.19629 2.13692C2.07135 2.01217 2.00079 1.84308 2 1.66651C2 1.29951 2.3 0.999512 2.667 0.999512ZM11.335 5.66551C10.228 5.66551 9.335 6.55951 9.335 7.66551C9.335 8.77251 10.228 9.66551 11.335 9.66551C12.442 9.66551 13.335 8.77251 13.335 7.66551C13.335 6.55951 12.442 5.66551 11.335 5.66551ZM11.335 8.33251C11.1583 8.33198 10.9889 8.26154 10.8639 8.13657C10.739 8.0116 10.6685 7.84225 10.668 7.66551C10.668 7.29951 10.968 6.99951 11.335 6.99951C11.702 6.99951 12.002 7.29951 12.002 7.66551C12.002 8.03251 11.702 8.33251 11.335 8.33251Z" fill="#9C9C9C"/>
</svg>
