<svg width="25" height="26" viewBox="0 0 25 26" fill="none" xmlns="http://www.w3.org/2000/svg">
<path d="M12.5 8.23695C9.98864 8.23695 7.95455 10.2777 7.95455 12.7973C7.95455 15.3169 9.98864 17.3576 12.5 17.3576C15.0114 17.3576 17.0455 15.3169 17.0455 12.7973C17.0455 10.2777 15.0114 8.23695 12.5 8.23695ZM22.6591 11.6572C22.4017 9.34526 21.3684 7.18983 19.7288 5.54486C18.0892 3.89989 15.9408 2.86317 13.6364 2.60493V1.39643C13.6364 0.769387 13.125 0.256348 12.5 0.256348C11.875 0.256348 11.3636 0.769387 11.3636 1.39643V2.60493C9.05923 2.86317 6.91084 3.89989 5.27124 5.54486C3.63165 7.18983 2.59831 9.34526 2.34091 11.6572H1.13636C0.511364 11.6572 0 12.1703 0 12.7973C0 13.4243 0.511364 13.9374 1.13636 13.9374H2.34091C2.59831 16.2493 3.63165 18.4048 5.27124 20.0497C6.91084 21.6947 9.05923 22.7314 11.3636 22.9897V24.1982C11.3636 24.8252 11.875 25.3383 12.5 25.3383C13.125 25.3383 13.6364 24.8252 13.6364 24.1982V22.9897C15.9408 22.7314 18.0892 21.6947 19.7288 20.0497C21.3684 18.4048 22.4017 16.2493 22.6591 13.9374H23.8636C24.4886 13.9374 25 13.4243 25 12.7973C25 12.1703 24.4886 11.6572 23.8636 11.6572H22.6591ZM12.5 20.7779C8.10227 20.7779 4.54545 17.2094 4.54545 12.7973C4.54545 8.38517 8.10227 4.81669 12.5 4.81669C16.8977 4.81669 20.4545 8.38517 20.4545 12.7973C20.4545 17.2094 16.8977 20.7779 12.5 20.7779Z" fill="url(#paint0_linear_14_158)"/>
<defs>
<linearGradient id="paint0_linear_14_158" x1="12.5" y1="0.256348" x2="12.5" y2="25.3383" gradientUnits="userSpaceOnUse">
<stop stop-color="#FFBF00"/>
<stop offset="1" stop-color="#F2A60C"/>
</linearGradient>
</defs>
</svg>
