<svg width="13" height="10" viewBox="0 0 13 10" fill="none" xmlns="http://www.w3.org/2000/svg">
<path fill-rule="evenodd" clip-rule="evenodd" d="M7.29289 0.542893C7.68342 0.152369 8.31658 0.152369 8.70711 0.542893L12.7071 4.54289C12.9028 4.7386 13.0087 5.00666 12.9994 5.28328C12.9902 5.55989 12.8668 5.82032 12.6585 6.00258L8.6585 9.50258C8.24287 9.86626 7.61111 9.82414 7.24742 9.4085C6.88374 8.99287 6.92586 8.36111 7.3415 7.99742L9.33855 6.25H1C0.447715 6.25 0 5.80228 0 5.25C0 4.69772 0.447715 4.25 1 4.25H9.58579L7.29289 1.95711C6.90237 1.56658 6.90237 0.933417 7.29289 0.542893Z" fill="#332200"/>
</svg>
