<svg width="24" height="24" viewBox="0 0 24 24" fill="none" xmlns="http://www.w3.org/2000/svg">
<path d="M2.98201 5.83547C1.07769 7.7401 0.00547298 10.3216 2.08937e-05 13.0149C-0.00543119 15.7082 1.05633 18.2941 2.95292 20.2064C5.0911 15.2609 8.90201 11.13 13.6584 8.67183C9.55301 12.1455 6.78175 16.9374 5.81837 22.2282C9.60019 24.0173 14.2547 23.3627 17.382 20.2355C21.7311 15.8864 22.9529 4.03183 23.2147 0.77365C23.2238 0.670122 23.2102 0.565855 23.1746 0.468185C23.1391 0.370515 23.0826 0.281815 23.0091 0.208327C22.9357 0.134839 22.847 0.0783477 22.7493 0.0428288C22.6516 0.00730993 22.5474 -0.00637369 22.4438 0.00274053C19.1856 0.264559 7.3311 1.48638 2.98201 5.83547Z" fill="#FFBB00"/>
</svg>
