<svg width="25" height="25" viewBox="0 0 25 25" fill="none" xmlns="http://www.w3.org/2000/svg">
<path d="M21.8268 9.39381C21.7035 9.62131 21.6304 9.88541 21.6151 10.1594C21.5997 10.4335 21.6425 10.7077 21.7393 10.9544C22.0493 11.858 22.268 12.8069 22.3893 13.7791C22.7111 16.292 22.4101 18.8675 21.5268 21.1609C21.4195 21.4124 21.2591 21.6225 21.063 21.7683C20.8668 21.9141 20.6425 21.9901 20.4142 21.988H4.60128C4.37174 21.9886 4.14649 21.9103 3.95025 21.7616C3.75401 21.613 3.59434 21.3997 3.48875 21.1453C2.68857 19.1187 2.34389 16.859 2.49145 14.6071C2.639 12.3553 3.27327 10.1956 4.32662 8.35833C5.37998 6.52108 6.81293 5.07513 8.47274 4.17462C10.1325 3.27412 11.957 2.95282 13.7515 3.24498C14.6595 3.37822 15.5477 3.6725 16.3891 4.11892C16.5867 4.23967 16.8064 4.29316 17.0259 4.27397C17.2454 4.25479 17.4569 4.16362 17.6391 4.00968C17.829 3.85353 17.9811 3.63569 18.0792 3.37962C18.1773 3.12355 18.2175 2.83893 18.1957 2.55641C18.1738 2.27389 18.0907 2.00416 17.9552 1.77625C17.8197 1.54834 17.6369 1.37089 17.4266 1.26299C15.0118 -0.0297332 12.3321 -0.339624 9.76818 0.377339C7.20425 1.0943 4.88646 2.80166 3.14406 5.25689C1.40165 7.71213 0.32322 10.7904 0.0619616 14.0544C-0.199297 17.3184 0.369899 20.6022 1.6887 23.4394C1.90684 23.9111 2.22007 24.3033 2.59726 24.5771C2.97445 24.8509 3.40246 24.9967 3.83876 25H21.1517C21.5923 25.0022 22.0255 24.859 22.4074 24.5849C22.7894 24.3109 23.1065 23.9157 23.3268 23.4394C24.2923 21.3504 24.8569 19.0105 24.9761 16.6033C25.0954 14.1961 24.7662 11.7871 24.0143 9.56547C23.9191 9.31228 23.7711 9.09569 23.5858 8.93838C23.4006 8.78106 23.1849 8.68881 22.9612 8.67126C22.7376 8.65371 22.5144 8.71152 22.3148 8.83863C22.1152 8.96574 21.9466 9.15749 21.8268 9.39381Z" fill="url(#paint0_linear_20_597)"/>
<path d="M10.739 13.4365C10.2699 14.0222 10.0063 14.8165 10.0063 15.6448C10.0063 16.0549 10.071 16.461 10.1968 16.8399C10.3225 17.2188 10.5067 17.563 10.739 17.853C10.9713 18.143 11.247 18.3731 11.5505 18.53C11.854 18.6869 12.1793 18.7677 12.5078 18.7677C13.1712 18.7677 13.8075 18.4387 14.2766 17.853L21.3518 4.60339L10.739 13.4365Z" fill="url(#paint1_linear_20_597)"/>
<defs>
<linearGradient id="paint0_linear_20_597" x1="12.5" y1="0" x2="12.5" y2="25" gradientUnits="userSpaceOnUse">
<stop stop-color="#FFBF00"/>
<stop offset="1" stop-color="#F2A60C"/>
</linearGradient>
<linearGradient id="paint1_linear_20_597" x1="15.6791" y1="4.60339" x2="15.6791" y2="18.7677" gradientUnits="userSpaceOnUse">
<stop stop-color="#FFBF00"/>
<stop offset="1" stop-color="#F2A60C"/>
</linearGradient>
</defs>
</svg>
