<svg width="150" height="43" viewBox="0 0 150 43" fill="none" xmlns="http://www.w3.org/2000/svg">
<path fill-rule="evenodd" clip-rule="evenodd" d="M24.919 20.1228C27.727 20.1228 29.244 23.7519 27.415 26.1033L24.755 29.5207C25.043 31.5476 26.014 33.3802 27.474 34.6524C28.9354 35.9253 30.778 36.5448 32.635 36.3875C34.492 36.2302 36.2272 35.3077 37.495 33.8036C38.7618 32.3 39.4671 30.3248 39.47 28.2728C39.4697 27.9158 39.5334 27.5623 39.6572 27.2325C39.7811 26.9026 39.9627 26.603 40.1918 26.3507C40.4209 26.0983 40.6928 25.8983 40.9921 25.762C41.2914 25.6258 41.6122 25.5559 41.936 25.5565C42.5897 25.5568 43.2166 25.843 43.6791 26.3522C44.1416 26.8615 44.4019 27.5522 44.403 28.2728C44.4028 31.1235 43.5883 33.9018 42.075 36.2134C40.942 37.9406 39.4568 39.3504 37.7392 40.3292C36.0216 41.3079 34.1194 41.8284 32.186 41.8485C30.2525 41.8687 28.3418 41.388 26.6077 40.4453C24.8735 39.5025 23.3645 38.1239 22.202 36.4207C21.0395 38.1239 19.5305 39.5025 17.7963 40.4453C16.0622 41.388 14.1515 41.8687 12.218 41.8485C10.2846 41.8284 8.38244 41.3079 6.6648 40.3292C4.94716 39.3504 3.46203 37.9406 2.329 36.2134C0.815352 33.9019 0.000475171 31.1237 8.16555e-07 28.2728C-0.000262974 27.9157 0.0633897 27.5621 0.187312 27.2322C0.311233 26.9023 0.492989 26.6026 0.722163 26.3503C0.951337 26.0979 1.22342 25.8979 1.52284 25.7617C1.82225 25.6255 2.1431 25.5558 2.467 25.5565C3.12069 25.5568 3.74757 25.843 4.21008 26.3522C4.67259 26.8615 4.93294 27.5522 4.934 28.2728C4.93123 30.3281 5.63353 32.3085 6.9 33.8168C7.84563 34.9428 9.06004 35.7521 10.4039 36.1519C11.7477 36.5517 13.1666 36.5258 14.4977 36.0772C15.8289 35.6286 17.0183 34.7754 17.9296 33.6155C18.8409 32.4556 19.4372 31.0361 19.65 29.5196L16.988 26.1022C15.16 23.7519 16.676 20.1239 19.488 20.1239L24.919 20.1228Z" fill="#9C9C9C"/>
<path d="M33.135 11.3101C33.7826 11.3107 34.4239 11.1706 35.0224 10.8979C35.6208 10.6251 36.1647 10.2251 36.6229 9.72059C37.0811 9.2161 37.4446 8.61703 37.6927 7.95761C37.9409 7.2982 38.0687 6.59135 38.069 5.87745C38.0687 5.16356 37.9409 4.45671 37.6927 3.79729C37.4446 3.13787 37.0811 2.53881 36.6229 2.03431C36.1647 1.52982 35.6208 1.12978 35.0224 0.857051C34.4239 0.584322 33.7826 0.444247 33.135 0.444826C32.4875 0.444392 31.8462 0.584574 31.2479 0.857368C30.6495 1.13016 30.1058 1.53022 29.6477 2.0347C29.1896 2.53918 28.8262 3.1382 28.5781 3.79755C28.3301 4.45689 28.2022 5.16365 28.202 5.87745C28.2022 6.59126 28.3301 7.29801 28.5781 7.95736C28.8262 8.61671 29.1896 9.21572 29.6477 9.7202C30.1058 10.2247 30.6495 10.6247 31.2479 10.8975C31.8462 11.1703 32.4875 11.3105 33.135 11.3101ZM10.112 11.3101C10.7595 11.3105 11.4007 11.1703 11.9991 10.8975C12.5974 10.6247 13.1412 10.2247 13.5992 9.7202C14.0573 9.21572 14.4208 8.61671 14.6688 7.95736C14.9169 7.29801 15.0447 6.59126 15.045 5.87745C15.0447 5.16365 14.9169 4.45689 14.6688 3.79755C14.4208 3.1382 14.0573 2.53918 13.5992 2.0347C13.1412 1.53022 12.5974 1.13016 11.9991 0.857368C11.4007 0.584574 10.7595 0.444392 10.112 0.444826C9.46439 0.444247 8.82305 0.584322 8.22458 0.857051C7.62612 1.12978 7.08225 1.52982 6.62406 2.03431C6.16587 2.53881 5.80233 3.13787 5.55421 3.79729C5.30609 4.45671 5.17824 5.16356 5.17798 5.87745C5.17824 6.59135 5.30609 7.2982 5.55421 7.95761C5.80233 8.61703 6.16587 9.2161 6.62406 9.72059C7.08225 10.2251 7.62612 10.6251 8.22458 10.8979C8.82305 11.1706 9.46439 11.3107 10.112 11.3101ZM78.045 1.77212C78.805 1.77212 79.429 2.01134 79.917 2.48978C80.405 2.96822 80.649 3.59659 80.649 4.37488V31.2018C80.649 32.0098 80.419 32.6525 79.957 33.131C79.497 33.6094 78.886 33.8486 78.127 33.8486C77.367 33.8486 76.757 33.6094 76.295 33.1321C75.834 32.6525 75.603 32.0098 75.603 31.2029V30.0806C75.006 31.3065 74.138 32.2634 72.998 32.9513C71.886 33.6392 70.611 33.9831 69.173 33.9831C67.463 33.9831 65.931 33.5047 64.575 32.5478C63.245 31.5909 62.201 30.2449 61.441 28.5097C60.708 26.7459 60.342 24.7274 60.342 22.4542C60.342 20.1811 60.708 18.1924 61.441 16.4869C62.201 14.7826 63.245 13.4664 64.575 12.5393C65.904 11.6121 67.437 11.148 69.173 11.148C70.611 11.148 71.886 11.4776 72.999 12.1358C74.0835 12.7639 74.9752 13.7316 75.562 14.9171V4.28449C75.562 3.53706 75.779 2.93845 76.213 2.48978C76.675 2.01134 77.285 1.77212 78.045 1.77212ZM70.516 29.632C72.144 29.632 73.392 29.019 74.26 27.7921C75.155 26.5662 75.603 24.8156 75.603 22.5435C75.603 20.2704 75.155 18.5352 74.26 17.3402C73.392 16.1132 72.158 15.4992 70.557 15.4992C68.929 15.4992 67.667 16.0978 66.772 17.295C65.877 18.4911 65.429 20.2109 65.429 22.4542C65.429 24.7274 65.877 26.4912 66.772 27.748C67.667 29.0047 68.915 29.632 70.516 29.632ZM94.957 33.9831C92.923 33.9831 91.132 33.5201 89.586 32.593C88.066 31.6659 86.886 30.3353 86.045 28.6001C85.204 26.8649 84.783 24.8464 84.783 22.5435C84.783 20.2406 85.203 18.2365 86.045 16.5321C86.886 14.797 88.066 13.4664 89.585 12.5393C91.132 11.6121 92.923 11.148 94.957 11.148C96.992 11.148 98.769 11.611 100.288 12.5393C101.811 13.4396 103.047 14.8332 103.829 16.5321C104.67 18.2365 105.091 20.2406 105.091 22.5435C105.091 24.8476 104.67 26.8649 103.829 28.6001C103.047 30.2991 101.811 31.6927 100.288 32.593C98.769 33.519 96.991 33.9831 94.957 33.9831ZM94.917 29.632C96.572 29.632 97.833 29.0334 98.701 27.8373C99.57 26.6412 100.004 24.8762 100.004 22.5435C100.004 20.2406 99.57 18.4911 98.701 17.295C97.833 16.068 96.585 15.4551 94.957 15.4551C93.33 15.4551 92.067 16.068 91.173 17.295C90.305 18.4911 89.87 20.2406 89.87 22.5435C89.87 24.8762 90.304 26.6412 91.173 27.8373C92.041 29.0334 93.289 29.632 94.917 29.632ZM126.138 11.2384C126.898 11.2384 127.508 11.4776 127.969 11.955C128.431 12.4345 128.661 13.0772 128.661 13.8842V31.6053C128.661 35.0448 127.793 37.6464 126.057 39.4125C124.32 41.1763 121.757 42.0582 118.365 42.0582C115.408 42.0582 112.939 41.4464 110.959 40.2194C109.955 39.5613 109.453 38.7687 109.453 37.8415C109.453 37.1834 109.589 36.6609 109.86 36.2717C110.158 35.8826 110.538 35.6875 110.999 35.6875C111.244 35.6875 111.542 35.7481 111.895 35.8682C112.247 36.0171 112.614 36.1824 112.993 36.361C113.843 36.7596 114.712 37.1041 115.598 37.3929C116.385 37.6321 117.28 37.7522 118.284 37.7522C121.838 37.7522 123.615 35.8385 123.615 32.0087V29.1381C123.018 30.3651 122.15 31.3208 121.011 32.0098C119.871 32.668 118.569 32.9965 117.104 32.9965C115.367 32.9965 113.821 32.5478 112.464 31.6516C111.135 30.7233 110.091 29.4379 109.331 27.7932C108.571 26.1473 108.191 24.2489 108.191 22.0949C108.191 19.9419 108.558 18.0424 109.29 16.3977C110.05 14.722 111.108 13.4366 112.464 12.5393C113.821 11.6121 115.367 11.148 117.104 11.148C118.569 11.148 119.871 11.492 121.011 12.1799C122.121 12.8063 123.03 13.7928 123.615 15.0064V13.8401C123.615 13.0629 123.846 12.4345 124.307 11.955C124.768 11.4776 125.379 11.2384 126.138 11.2384ZM118.447 28.6453C120.075 28.6453 121.336 28.061 122.231 26.8958C123.154 25.7284 123.615 24.1288 123.615 22.0949C123.615 20.0312 123.154 18.4162 122.231 17.2498C121.336 16.0835 120.075 15.5003 118.447 15.5003C116.846 15.5003 115.584 16.0835 114.662 17.2498C113.74 18.4162 113.278 20.0312 113.278 22.0949C113.278 24.1288 113.74 25.7284 114.662 26.8958C115.584 28.0621 116.846 28.6453 118.447 28.6453ZM141.133 33.9831C138.176 33.9831 135.789 33.3404 133.971 32.0539C133.103 31.4862 132.669 30.6781 132.669 29.632C132.669 29.0334 132.818 28.5549 133.116 28.1966C133.415 27.8075 133.781 27.6124 134.215 27.6124C134.676 27.6124 135.314 27.8527 136.128 28.3311C136.996 28.7798 137.783 29.1238 138.488 29.363C139.221 29.6022 140.143 29.7213 141.255 29.7213C142.395 29.7213 143.277 29.5118 143.901 29.0929C144.552 28.674 144.877 28.0919 144.877 27.3434C144.877 26.8363 144.742 26.4317 144.47 26.1329C144.226 25.8331 143.765 25.5641 143.087 25.3249C142.435 25.0559 141.432 24.7572 140.075 24.4275C137.661 23.8896 135.924 23.1267 134.866 22.1401C133.835 21.1534 133.32 19.7919 133.32 18.0579C133.32 16.7416 133.672 15.5598 134.378 14.5126C135.083 13.4366 136.046 12.6142 137.267 12.0454C138.515 11.4479 139.926 11.148 141.499 11.148C142.639 11.148 143.738 11.3134 144.796 11.6419C145.805 11.9178 146.767 12.3719 147.645 12.9868C148.513 13.5854 148.947 14.3781 148.947 15.3658C148.947 15.9633 148.798 16.4726 148.499 16.8904C148.201 17.2796 147.834 17.4747 147.4 17.4747C147.102 17.4747 146.803 17.4141 146.505 17.295C146.148 17.0946 145.795 16.8851 145.447 16.6666C144.66 16.218 143.982 15.8894 143.412 15.68C142.842 15.4408 142.137 15.3206 141.296 15.3206C140.292 15.3206 139.492 15.5455 138.895 15.9931C138.325 16.4418 138.04 17.0558 138.04 17.833C138.04 18.5804 138.339 19.1492 138.936 19.5373C139.533 19.9264 140.686 20.3156 142.395 20.7047C144.213 21.1236 145.637 21.601 146.668 22.1401C147.699 22.678 148.431 23.3516 148.865 24.1586C149.327 24.9666 149.557 25.9985 149.557 27.2541C149.557 29.288 148.784 30.9185 147.238 32.1443C145.718 33.3702 143.683 33.9831 141.133 33.9831Z" fill="#9C9C9C"/>
</svg>
