<svg width="164" height="43" viewBox="0 0 164 43" fill="none" xmlns="http://www.w3.org/2000/svg">
<path d="M2.688 34.0813C1.876 34.0813 1.218 33.8035 0.714 33.2479C0.238 32.6923 0 31.9669 0 31.0717V3.98578C0 3.09064 0.224 2.39612 0.672 1.90225C1.148 1.40837 1.792 1.16144 2.604 1.16144H17.346C19.054 1.16144 19.908 1.96398 19.908 3.56908C19.908 5.1433 19.054 5.93042 17.346 5.93042H5.334V14.8202H16.506C18.214 14.8202 19.068 15.6227 19.068 17.2278C19.068 18.802 18.214 19.5892 16.506 19.5892H5.334V31.0717C5.334 31.9669 5.096 32.6923 4.62 33.2479C4.144 33.8035 3.5 34.0813 2.688 34.0813ZM27.613 34.0813C26.857 34.0813 26.227 33.8498 25.723 33.3868C25.247 32.8929 25.009 32.1984 25.009 31.3033V3.66168C25.009 2.76653 25.247 2.08745 25.723 1.62444C26.227 1.16144 26.857 0.929932 27.613 0.929932C28.369 0.929932 28.999 1.16144 29.503 1.62444C30.007 2.08745 30.259 2.76653 30.259 3.66168V31.3033C30.259 32.1984 30.007 32.8929 29.503 33.3868C28.999 33.8498 28.369 34.0813 27.613 34.0813ZM51.927 27.5992C52.403 27.5992 52.781 27.7998 53.061 28.2011C53.369 28.6024 53.523 29.1426 53.523 29.8216C53.523 30.7785 53.005 31.5811 51.969 32.2293C51.017 32.8157 49.939 33.2942 48.735 33.6646C47.531 34.0041 46.383 34.1739 45.291 34.1739C41.987 34.1739 39.369 33.1244 37.437 31.0254C35.505 28.9265 34.539 26.0558 34.539 22.4135C34.539 20.0985 34.959 18.0458 35.799 16.2555C36.639 14.4652 37.815 13.0762 39.327 12.0884C40.867 11.1007 42.603 10.6068 44.535 10.6068C46.383 10.6068 47.993 11.0544 49.365 11.9495C50.737 12.8447 51.801 14.1102 52.557 15.7462C53.313 17.3821 53.691 19.3113 53.691 21.5338C53.691 22.8611 53.159 23.5247 52.095 23.5247H39.705C39.873 25.6546 40.419 27.2288 41.343 28.2474C42.267 29.2352 43.611 29.729 45.375 29.729C46.271 29.729 47.055 29.6056 47.727 29.3586C48.427 29.1117 49.211 28.7721 50.079 28.34C50.919 27.8461 51.535 27.5992 51.927 27.5992ZM44.66 14.6813C43.232 14.6813 42.084 15.1751 41.216 16.1629C40.376 17.1506 39.872 18.5705 39.704 20.4226H49.196C49.14 18.5397 48.72 17.1198 47.936 16.1629C47.152 15.1751 46.06 14.6813 44.66 14.6813ZM75.383 29.5438C75.887 30.0994 76.139 30.7322 76.139 31.4422C76.139 32.1212 75.901 32.7386 75.425 33.2942C74.949 33.8189 74.389 34.0813 73.745 34.0813C73.045 34.0813 72.443 33.7572 71.939 33.109L66.017 25.8861L60.095 33.109C59.563 33.7263 58.961 34.035 58.289 34.035C57.673 34.035 57.127 33.7726 56.651 33.2479C56.175 32.7231 55.937 32.1212 55.937 31.4422C55.937 30.7322 56.189 30.0994 56.693 29.5438L62.825 22.182L57.029 15.2369C56.525 14.6813 56.273 14.0485 56.273 13.3385C56.273 12.6286 56.511 12.0267 56.987 11.5328C57.463 11.0081 58.009 10.7457 58.625 10.7457C59.297 10.7457 59.899 11.0544 60.431 11.6717L66.017 18.4316L71.603 11.6717C72.135 11.0544 72.737 10.7457 73.409 10.7457C74.053 10.7457 74.599 11.0081 75.047 11.5328C75.523 12.0267 75.761 12.6286 75.761 13.3385C75.761 14.0485 75.509 14.6813 75.005 15.2369L69.209 22.182L75.383 29.5438ZM98.619 16.95C100.327 17.4747 101.643 18.4316 102.567 19.8207C103.519 21.2097 103.995 22.9074 103.995 24.9137C103.995 27.6918 103.085 29.8679 101.265 31.4422C99.473 33.0164 96.995 33.8035 93.831 33.8035H82.995C82.183 33.8035 81.539 33.5566 81.063 33.0627C80.615 32.5688 80.391 31.8743 80.391 30.9791V3.98578C80.391 3.09064 80.615 2.39612 81.063 1.90225C81.539 1.40837 82.183 1.16144 82.995 1.16144H93.41C96.49 1.16144 98.898 1.91768 100.634 3.43017C102.398 4.9118 103.28 6.99534 103.28 9.68078C103.28 11.4093 102.86 12.9064 102.02 14.172C101.208 15.4375 100.074 16.3635 98.618 16.95H98.619ZM85.683 14.9128H92.529C96.253 14.9128 98.115 13.3848 98.115 10.329C98.115 8.78563 97.653 7.64355 96.729 6.90273C95.805 6.16192 94.405 5.79152 92.529 5.79152H85.683V14.9128ZM93.243 29.1734C95.203 29.1734 96.631 28.7876 97.527 28.0159C98.423 27.2442 98.871 26.0404 98.871 24.4044C98.871 22.7685 98.409 21.5492 97.485 20.7467C96.589 19.9441 95.175 19.5429 93.243 19.5429H85.683V29.1734H93.243ZM111.203 34.0813C110.447 34.0813 109.817 33.8498 109.313 33.3868C108.837 32.8929 108.599 32.1984 108.599 31.3033V3.66168C108.599 2.76653 108.837 2.08745 109.313 1.62444C109.817 1.16144 110.447 0.929932 111.203 0.929932C111.959 0.929932 112.589 1.16144 113.093 1.62444C113.597 2.08745 113.849 2.76653 113.849 3.66168V31.3033C113.849 32.1984 113.597 32.8929 113.093 33.3868C112.589 33.8498 111.959 34.0813 111.203 34.0813ZM128.629 34.1739C126.529 34.1739 124.681 33.6955 123.085 32.7386C121.517 31.7817 120.299 30.4081 119.431 28.6178C118.563 26.8275 118.129 24.744 118.129 22.3672C118.129 19.9904 118.563 17.9223 119.431 16.1629C120.299 14.3726 121.517 12.999 123.085 12.0421C124.681 11.0852 126.529 10.6068 128.629 10.6068C130.729 10.6068 132.563 11.0852 134.131 12.0421C135.703 12.9715 136.978 14.4097 137.785 16.1629C138.653 17.9223 139.087 19.9904 139.087 22.3672C139.087 24.744 138.653 26.8275 137.785 28.6178C136.978 30.371 135.703 31.8092 134.131 32.7386C132.563 33.6955 130.729 34.1739 128.629 34.1739ZM128.587 29.6827C130.295 29.6827 131.597 29.0654 132.493 27.8307C133.389 26.596 133.837 24.7748 133.837 22.3672C133.837 19.9904 133.389 18.1847 132.493 16.95C131.597 15.6845 130.309 15.0517 128.629 15.0517C126.949 15.0517 125.647 15.6845 124.723 16.95C123.827 18.1847 123.379 19.9904 123.379 22.3672C123.379 24.7748 123.827 26.596 124.723 27.8307C125.619 29.0654 126.907 29.6827 128.587 29.6827ZM160.809 10.6994C161.593 10.6994 162.223 10.9463 162.699 11.4402C163.175 11.9341 163.413 12.5977 163.413 13.4311V31.72C163.413 35.2697 162.517 37.9551 160.725 39.7763C158.933 41.5975 156.287 42.508 152.787 42.508C149.735 42.508 147.187 41.8753 145.143 40.6097C144.107 39.9306 143.589 39.1127 143.589 38.1558C143.589 37.4767 143.729 36.9365 144.009 36.5352C144.317 36.134 144.709 35.9333 145.185 35.9333C145.437 35.9333 145.745 35.9951 146.109 36.1185C146.473 36.2729 146.851 36.4426 147.243 36.6278C148.251 37.0909 149.147 37.4458 149.931 37.6928C150.743 37.9397 151.667 38.0632 152.703 38.0632C156.371 38.0632 158.205 36.0877 158.205 32.1367V29.1734C157.589 30.439 156.693 31.4267 155.517 32.1367C154.341 32.8157 152.997 33.1553 151.485 33.1553C149.693 33.1553 148.097 32.6923 146.697 31.7663C145.325 30.8094 144.247 29.4821 143.463 27.7844C142.679 26.0867 142.287 24.1266 142.287 21.9042C142.287 19.6818 142.665 17.7217 143.421 16.024C144.205 14.2954 145.297 12.9681 146.697 12.0421C148.097 11.0852 149.693 10.6068 151.485 10.6068C152.997 10.6068 154.341 10.9618 155.517 11.6717C156.663 12.3179 157.601 13.336 158.205 14.5887V13.3848C158.205 12.5823 158.443 11.9341 158.919 11.4402C159.395 10.9463 160.025 10.6994 160.809 10.6994ZM152.871 28.6641C154.551 28.6641 155.853 28.0622 156.777 26.8584C157.729 25.6546 158.205 24.0032 158.205 21.9042C158.205 19.7744 157.729 18.1075 156.777 16.9037C155.853 15.6999 154.551 15.098 152.871 15.098C151.219 15.098 149.917 15.6999 148.965 16.9037C148.013 18.1075 147.537 19.7744 147.537 21.9042C147.537 24.0032 148.013 25.6546 148.965 26.8584C149.917 28.0622 151.219 28.6641 152.871 28.6641Z" fill="#9C9C9C"/>
</svg>
