<svg width="208" height="45" viewBox="0 0 208 45" fill="none" xmlns="http://www.w3.org/2000/svg">
<path fill-rule="evenodd" clip-rule="evenodd" d="M13.935 40.5472C13.8021 40.5458 13.6713 40.5109 13.5526 40.4452C13.4338 40.3795 13.3303 40.2846 13.25 40.1679C13.0219 39.8336 12.8678 39.4452 12.8 39.0336C12.6916 38.5096 12.6081 37.9797 12.55 37.4461C12.4809 36.759 12.4455 36.0682 12.444 35.3769C12.4234 33.8578 12.4281 32.3385 12.458 30.8196C12.476 29.887 12.484 29.1594 12.484 28.6346V11.2696C12.484 10.4142 12.489 9.76374 12.498 9.31727C12.507 8.8708 12.538 8.3659 12.589 7.80257C12.619 7.38366 12.685 6.96916 12.788 6.56458C12.888 6.2526 13.021 5.95495 13.183 5.67604C13.333 5.38391 13.551 5.14248 13.816 4.97712C14.124 4.80735 14.441 4.65743 14.765 4.52514C15.1825 4.35406 15.6152 4.23212 16.056 4.16135C16.6303 4.06892 17.2064 3.99099 17.784 3.92764V2.32364L17.334 1.82756H1.41199L0.98999 2.32364V3.69282C3.66199 3.86811 5.15599 4.70373 5.47199 6.19858C5.65599 7.46083 5.74399 8.73741 5.73599 10.0151V36.6127C5.7802 37.9943 5.72704 39.3775 5.57699 40.75C5.50399 40.9639 5.39699 41.1601 5.26099 41.3321C5.05736 41.6006 4.84211 41.8581 4.61599 42.1037C4.43684 42.2946 4.26534 42.4939 4.10199 42.7013V43.721C17.689 43.721 26.099 43.818 29.332 44.0131L30.467 39.7887L29.755 39.2342C24.505 39.9629 19.225 40.4005 13.936 40.5461L13.935 40.5472ZM39.191 28.37C39.1394 28.386 39.0865 28.3956 39.033 28.3987C38.77 28.3987 38.638 28.2929 38.638 28.079C38.639 27.1133 38.705 26.1487 38.836 25.194C38.984 24.1534 39.231 23.1325 39.574 22.1503C39.9045 21.1544 40.3578 20.2133 40.921 19.3535C41.5179 18.4789 42.2931 17.7713 43.1839 17.2879C44.0747 16.8046 45.0562 16.559 46.049 16.5711C46.7654 16.5272 47.4799 16.6896 48.1223 17.0421C48.7647 17.3946 49.3128 17.9252 49.713 18.5818C50.5441 19.9398 50.977 21.5464 50.953 23.1844C50.9495 23.4846 50.8629 23.7765 50.705 24.0212C50.547 24.2658 50.3252 24.4515 50.069 24.5535C48.6253 25.1949 47.1511 25.7495 45.653 26.2149C43.5459 26.8984 41.4458 27.6076 39.353 28.3425C39.2982 28.345 39.2439 28.3543 39.191 28.37ZM54.851 37.4593C51.686 39.5759 48.953 40.6343 46.653 40.6343C45.0948 40.6716 43.5649 40.1726 42.276 39.2066C41.077 38.3197 40.1236 37.0847 39.521 35.6382C38.9277 34.1876 38.6264 32.6125 38.638 31.0213C50.133 27.0791 55.933 25.1069 56.038 25.1069C56.4945 25.004 56.9024 24.724 57.1877 24.3179C57.473 23.9118 57.6168 23.4063 57.593 22.8933C57.6243 21.4632 57.3201 20.0484 56.71 18.7858C56.1528 17.6565 55.3282 16.7151 54.324 16.0618C53.3108 15.4062 52.2128 14.9248 51.068 14.6341C49.8262 14.3242 48.5562 14.1725 47.283 14.1822C44.999 14.1431 42.7339 14.645 40.641 15.6539C38.7956 16.5326 37.1651 17.8805 35.883 19.5872C34.6742 21.2376 33.7413 23.1118 33.128 25.1224C32.492 27.1912 32.171 29.3617 32.178 31.5461C32.178 36.0328 33.278 39.3929 35.474 41.6264C37.46 43.6659 40.264 44.6845 43.884 44.6845C45.9596 44.661 48.0026 44.113 49.856 43.0827C52.0879 41.8572 54.2259 40.4341 56.249 38.8274L55.672 37.6941L54.851 37.4593ZM90.36 6.74096C89.6536 4.7068 88.2663 3.04883 86.484 2.10868C84.2762 1.08471 81.8914 0.607532 79.498 0.710833C77.7514 0.699788 76.0106 0.934661 74.318 1.40975C72.7435 1.85171 71.2404 2.55936 69.862 3.50762C68.5119 4.44592 67.4077 5.75703 66.659 7.3109C65.8463 9.01055 65.4379 10.9097 65.472 12.8306C65.4711 14.2057 65.7742 15.5603 66.355 16.7772C66.9098 17.9816 67.6606 19.0634 68.57 19.9687C69.548 20.9196 70.5874 21.791 71.68 22.5758C72.7766 23.3813 73.9123 24.1203 75.082 24.7895C76.1816 25.4125 77.2631 26.0736 78.325 26.7716C79.205 27.3206 80.031 27.9699 80.79 28.7085C82.74 30.7093 83.716 32.6121 83.716 34.4189C83.7124 35.3787 83.5304 36.3274 83.1813 37.2066C82.8321 38.0858 82.3232 38.8768 81.686 39.5307C81.0534 40.2486 80.2946 40.8165 79.456 41.1998C78.6174 41.5831 77.7167 41.7736 76.809 41.7598C75.7476 41.7934 74.6933 41.5588 73.7269 41.0741C72.7604 40.5893 71.9073 39.8672 71.233 38.963C69.8337 37.1966 69.0696 34.9264 69.085 32.5812L68.058 32.1733L62.812 38.6698C64.0109 40.5826 65.6364 42.1229 67.532 43.1422C69.4594 44.1846 71.5802 44.7186 73.727 44.7021C75.6858 44.6913 77.6321 44.3568 79.501 43.7099C81.3805 43.0862 83.1727 42.1791 84.827 41.0146C86.3996 39.9075 87.7351 38.4367 88.741 36.7042C89.7269 35.0568 90.2539 33.1273 90.257 31.1536C90.2649 30.0945 90.0954 29.0428 89.757 28.0515C89.444 27.1309 89.0085 26.2667 88.465 25.4873C87.8252 24.622 87.0848 23.8532 86.263 23.2009C85.3651 22.4544 84.4274 21.7678 83.455 21.1449C82.2911 20.4139 81.1135 19.7096 79.923 19.0327C79.0929 18.5891 78.2752 18.1178 77.471 17.6194C76.7105 17.1295 75.9704 16.602 75.253 16.0386C74.5175 15.4828 73.8453 14.8313 73.251 14.0984C72.7287 13.4143 72.302 12.6482 71.985 11.8252C71.6331 10.9391 71.4536 9.98145 71.458 9.01411C71.4418 8.22297 71.5697 7.43629 71.8342 6.70063C72.0988 5.96498 72.4945 5.29532 72.998 4.73129C73.5301 4.14497 74.1669 3.68691 74.868 3.38613C75.5692 3.08535 76.3193 2.94841 77.071 2.98398C78.0021 2.93965 78.9305 3.12294 79.7897 3.5207C80.649 3.91847 81.4178 4.52085 82.041 5.28469C83.2897 6.84272 84.0762 8.78457 84.295 10.8496L85.218 11.1693L90.36 6.74096ZM115.998 17.9138C115.527 17.0045 114.845 16.2502 114.021 15.7288C113.206 15.2153 112.326 14.8375 111.411 14.6077C110.429 14.3675 109.425 14.2503 108.419 14.2582C106.5 14.2285 104.592 14.5889 102.79 15.322C101.244 15.9409 99.8278 16.897 98.625 18.1332C97.5072 19.3269 96.5802 20.7201 95.883 22.2539C95.1663 23.797 94.6387 25.4381 94.314 27.1343C93.9937 28.8498 93.8348 30.5971 93.84 32.3486C93.834 33.8369 94.025 35.3185 94.406 36.745C94.776 38.1263 95.351 39.4304 96.106 40.6056C96.9021 41.8177 97.9699 42.7814 99.205 43.4024C100.623 44.1167 102.168 44.4706 103.726 44.4364C108.665 44.4364 113.305 42.0376 117.646 37.2411L117.119 36.3955L116.46 36.2213C113.244 38.9597 110.273 40.3289 107.549 40.3289C106.529 40.347 105.521 40.092 104.61 39.5859C103.784 39.134 103.066 38.4761 102.511 37.6644C101.96 36.83 101.512 35.9188 101.179 34.9547C100.833 33.9919 100.581 32.9911 100.428 31.9694C100.288 31.0059 100.218 30.0314 100.217 29.0557C100.223 27.8155 100.32 26.5787 100.507 25.3561C100.714 23.9946 101.023 22.6552 101.43 21.35C101.8 20.0744 102.442 18.9152 103.302 17.97C103.681 17.547 104.132 17.2118 104.63 16.9842C105.129 16.7567 105.663 16.6413 106.202 16.6449C106.922 16.6011 107.64 16.7798 108.273 17.1607C108.906 17.5416 109.431 18.1098 109.787 18.8012C110.602 20.4203 111.003 22.253 110.947 24.1038L111.87 24.5116L116.853 21.2496C116.812 20.0787 116.519 18.9352 115.998 17.9138ZM125.661 26.5809C125.795 25.4366 126.029 24.3099 126.36 23.2163C126.663 22.1525 127.093 21.1394 127.638 20.2013C128.162 19.3322 128.861 18.6092 129.682 18.0891C130.567 17.526 131.574 17.239 132.595 17.259C133.703 17.2279 134.796 17.5461 135.745 18.1762C136.627 18.7817 137.336 19.6506 137.788 20.6819C138.265 21.7479 138.61 22.879 138.815 24.0464C139.032 25.3032 139.139 26.582 139.132 27.8629C139.132 29.0282 139.123 29.9994 139.105 30.7755C139.077 31.7104 139.016 32.6438 138.921 33.5734C138.843 34.4884 138.698 35.3934 138.486 36.282C138.279 37.0647 138.01 37.8253 137.682 38.5551C137.38 39.2775 136.944 39.9223 136.403 40.4479C135.844 40.9512 135.211 41.3453 134.531 41.6132C133.707 41.9383 132.836 42.0963 131.961 42.0795C130.997 42.0925 130.053 41.7768 129.258 41.1755C128.483 40.6029 127.838 39.8404 127.374 38.9476C126.887 37.9867 126.506 36.9648 126.24 35.9039C125.96 34.8598 125.757 33.7925 125.633 32.7124C125.531 31.7795 125.478 30.8409 125.475 29.9013C125.474 28.7913 125.537 27.6823 125.661 26.5809ZM122.392 41.6429C124.307 43.5655 127.348 44.5268 131.514 44.5268C133.054 44.5379 134.59 44.3427 136.088 43.9437C137.497 43.5574 138.84 42.9231 140.066 42.0652C141.298 41.2082 142.375 40.1067 143.243 38.8164C144.192 37.3534 144.897 35.7157 145.326 33.9802C145.858 31.8755 146.115 29.6981 146.091 27.5135C146.142 25.7545 145.846 24.0044 145.222 22.3844C144.598 20.7645 143.662 19.3135 142.479 18.1321C140.281 15.9581 137.091 14.8701 132.909 14.8701C128.726 14.8701 125.281 16.2977 122.574 19.1529C121.245 20.5376 120.196 22.2162 119.497 24.0787C118.797 25.9412 118.462 27.9457 118.514 29.9608C118.514 35.1663 119.805 39.06 122.389 41.6429H122.392ZM163.65 18.5697C165.056 18.5697 166.058 18.8806 166.656 19.5023C167.213 20.252 167.565 21.1626 167.67 22.1261C167.891 23.2615 168.028 24.4168 168.079 25.5777C168.114 26.5974 168.132 27.9137 168.132 29.5254C168.131 31.6182 168.118 33.7109 168.093 35.8035C168.084 36.4341 168.088 37.1771 168.105 38.0326C168.11 38.6698 168.145 39.307 168.211 39.9397C168.264 40.3586 168.334 40.815 168.422 41.3089C168.483 41.7234 168.608 42.1214 168.791 42.4885C168.949 42.7806 169.143 43.0463 169.369 43.2767C170.16 44.0679 171.201 44.4858 172.268 44.4408C173.587 44.4408 175.098 43.7022 176.803 42.2272C178.226 40.9227 179.581 39.5315 180.863 38.0601L180.257 37.068H179.624C178.593 37.9799 177.332 38.5192 176.013 38.6124C175.734 38.6301 175.454 38.585 175.191 38.4798C174.928 38.3746 174.687 38.2116 174.483 38.0006C174.301 37.842 174.145 37.6504 174.021 37.434C173.876 37.0529 173.783 36.6502 173.745 36.239C173.644 35.4038 173.6 34.5614 173.613 33.7189C173.613 33.0784 173.644 32.0432 173.705 30.6167C173.754 29.6026 173.785 28.5874 173.798 27.5719V25.8235C173.815 23.9395 173.811 22.6343 173.785 21.9045C173.732 20.9088 173.631 19.9171 173.481 18.9335C173.415 18.0062 173.134 17.1131 172.664 16.3407C172.2 15.7857 171.645 15.3314 171.029 15.0012C170.192 14.5549 169.269 14.3396 168.34 14.374C165.247 14.374 161.661 15.7729 157.584 18.5697L156.951 18.3073C156.917 17.2361 156.601 16.1989 156.042 15.322C155.523 14.5724 154.631 14.1998 153.366 14.1998C152.608 14.2103 151.856 14.3528 151.138 14.622C150.303 14.9307 149.506 15.3518 148.764 15.8743C147.964 16.4289 147.27 16.9437 146.681 17.4188C146.092 17.8939 145.411 18.4716 144.638 19.1518L145.613 20.5794C145.792 20.4515 145.973 20.3255 146.154 20.2013C146.461 19.9874 146.729 19.8132 146.958 19.6765C147.186 19.5409 147.459 19.3811 147.775 19.1959C148.058 19.0261 148.354 18.8839 148.659 18.7703C148.892 18.6822 149.136 18.6325 149.383 18.6248C149.688 18.6171 149.989 18.702 150.253 18.8729C150.521 19.068 150.723 19.3546 150.831 19.6886C150.963 20.0414 151.077 20.3997 151.173 20.7657C151.281 21.2585 151.343 21.7612 151.358 22.2672C151.394 22.9286 151.415 23.4622 151.422 23.8689C151.43 24.2757 151.434 24.8876 151.435 25.7044V26.2005C151.435 28.1033 151.303 33.9295 151.04 43.6791L151.699 44.087L157.631 42.193C157.455 41.3585 157.323 38.7271 157.235 34.2999C157.148 29.9692 157.105 25.6376 157.107 21.3059C160.165 19.4803 162.344 18.5675 163.645 18.5675L163.65 18.5697ZM189.223 28.5023C189.172 28.5193 189.119 28.5296 189.065 28.5332C188.802 28.5332 188.67 28.4263 188.669 28.2135C188.67 27.2467 188.736 26.2832 188.868 25.3285C189.016 24.2879 189.263 23.267 189.605 22.2837C189.936 21.2882 190.388 20.3468 190.95 19.4869C191.547 18.612 192.322 17.9042 193.213 17.4208C194.104 16.9375 195.085 16.692 196.078 16.7045C196.794 16.6605 197.509 16.8228 198.151 17.1753C198.794 17.5279 199.342 18.0585 199.742 18.7152C200.573 20.0731 201.006 21.6798 200.981 23.3177C200.977 23.6178 200.891 23.9094 200.733 24.1539C200.575 24.3984 200.354 24.5843 200.098 24.6869C198.655 25.328 197.181 25.8825 195.683 26.3482C193.576 27.0316 191.475 27.7409 189.382 28.4759C189.329 28.4791 189.276 28.4883 189.224 28.5034L189.223 28.5023ZM204.883 37.5927C201.718 39.7104 198.985 40.7687 196.684 40.7676C195.126 40.8047 193.596 40.3061 192.307 39.3411C191.108 38.4539 190.155 37.219 189.553 35.7727C188.959 34.3215 188.658 32.7456 188.669 31.1536C200.164 27.2125 205.964 25.2414 206.07 25.2414C206.526 25.138 206.934 24.8578 207.22 24.4515C207.505 24.0453 207.649 23.5398 207.625 23.0267C207.656 21.5966 207.352 20.1818 206.742 18.9192C206.185 17.7899 205.36 16.8485 204.356 16.1951C203.343 15.5398 202.245 15.0584 201.1 14.7675C199.858 14.4575 198.588 14.3058 197.314 14.3156C195.031 14.2767 192.766 14.7786 190.674 15.7873C188.829 16.6659 187.198 18.0138 185.916 19.7206C184.707 21.3707 183.774 23.245 183.161 25.2558C182.525 27.3245 182.204 29.4951 182.212 31.6795C182.212 36.1662 183.31 39.5252 185.507 41.7598C187.493 43.7992 190.296 44.8179 193.917 44.8179C195.993 44.7943 198.036 44.2463 199.889 43.2161C202.121 41.9904 204.259 40.5677 206.282 38.9619L205.705 37.8275L204.883 37.5927Z" fill="#9C9C9C"/>
</svg>
