<svg width="139" height="57" viewBox="0 0 139 57" fill="none" xmlns="http://www.w3.org/2000/svg">
<path d="M24.912 12.7782L20.31 43.9739H13.698L15.378 32.7096H8.256L6.61 43.9739H0L4.639 12.7782H11.214L9.242 25.9497H16.364L18.338 12.7782H24.912ZM38.473 43.9739L38.693 37.1721H32.593L30.803 43.9739H23.826L33.214 12.7782H45.267L45.414 43.9739H38.473ZM36.976 20.3605L34.091 31.3657H38.876L39.277 20.3616L36.976 20.3605ZM73.783 12.7782L69.18 43.9739H62.568L57.967 26.9043L55.483 43.975H48.87L53.509 12.7782H60.303L64.833 28.7233L67.206 12.7782H73.783ZM89.208 12.7782C92.398 12.7782 94.675 13.7318 96.038 15.6378C97.037 17.0819 97.535 18.8877 97.535 21.0539C97.535 21.8344 97.475 22.6568 97.354 23.5233L95.929 33.1858C95.442 36.4489 94.248 39.0638 92.349 41.0283C90.449 42.9928 87.99 43.9739 84.969 43.9739H74.34L78.98 12.7782H89.208ZM86.906 19.5381H84.532L81.939 37.214H85.409C86.553 37.214 87.442 36.8524 88.075 36.1314C88.733 35.3796 89.183 34.1669 89.425 32.4924L90.486 25.3863C90.578 24.8131 90.627 24.2332 90.632 23.6522C90.632 20.9073 89.391 19.5381 86.906 19.5381ZM117.112 43.9739H98.775L103.416 12.7782H121.753L120.73 19.5381H108.968L108.128 25.3874H117.844L116.822 32.1451H107.105L106.375 37.2151H118.137L117.112 43.9739ZM137.977 43.9739H121.32L125.96 12.7782H132.535L128.919 37.2151H139L137.977 43.9739ZM73.471 49.5256H137.014L135.029 56.0099H71.486L73.471 49.5256ZM6.95 0.889893H76.45L74.464 7.37421H4.964L6.95 0.889893Z" fill="#9C9C9C"/>
</svg>
