<svg width="148" height="40" viewBox="0 0 148 40" fill="none" xmlns="http://www.w3.org/2000/svg">
<path d="M48.624 39.7613V0.604004H39.648L20.88 30.8186L17.712 26.4266C23.376 25.4742 26.544 19.971 26.544 14.0974C26.544 8.48837 23.76 3.77892 20.016 1.9798C18.144 1.08024 15.36 0.604004 11.664 0.604004H0V39.7613H8.688V27.1145H8.784L16.992 39.7613H26.16L29.28 34.0993H39.552V39.7613H48.624ZM8.688 20.2885V9.38793H12.144C15.552 9.38793 17.856 11.2929 17.856 14.6794C17.856 18.2777 15.696 20.2885 12.096 20.2885H8.688ZM39.552 26.1621H33.6L39.456 15.3144H39.552V26.1621ZM85.03 39.7613V0.604004H76.342L76.726 25.3683L62.902 0.604004H55.078V39.7613H63.766L63.526 15.8436L77.158 39.7613H85.03ZM111.228 39.7613V30.9773H100.188V24.2571H110.892V15.4732H100.188V9.38793H111.228V0.604004H91.5V39.7613H111.228ZM147.29 39.7613L134.762 20.1297L146.522 0.604004H137.018L126.986 18.2248H126.89V0.604004H117.818V39.7613H126.89V22.8284H126.986L136.682 39.7613H147.29Z" fill="#9C9C9C"/>
</svg>
