<svg width="200" height="55" viewBox="0 0 200 55" fill="none" xmlns="http://www.w3.org/2000/svg">
<path d="M54.3807 48.8372C51.0607 48.8372 48.5157 48.2111 46.7447 46.9587C45.0047 45.6711 44.1357 43.7915 44.1357 41.3211C44.1357 40.0687 44.5157 39.0413 45.2737 38.241C46.0647 37.4064 47.0767 36.9886 48.3097 36.9886C49.0367 37.0239 49.5897 37.2312 49.9697 37.6148C50.3497 37.9631 50.5397 38.2939 50.5397 38.607C50.5397 38.6411 50.3807 38.7635 50.0647 38.9718C49.7487 39.1813 49.4647 39.4944 49.2107 39.9111C48.9577 40.33 48.8307 40.9032 48.8307 41.6341C48.8307 43.2701 49.2747 44.5401 50.1597 45.4451C51.0767 46.3149 52.4837 46.7493 54.3807 46.7493C55.6777 46.7493 56.8157 46.4715 57.7967 45.9148C58.7767 45.358 59.5197 44.6272 60.0257 43.7221C60.5627 42.7828 60.8317 41.8083 60.8317 40.7985C60.8317 39.5462 60.4997 38.468 59.8357 37.563C59.1908 36.6462 58.3843 35.8827 57.4647 35.3185C56.5147 34.6923 55.2187 33.978 53.5747 33.1776C51.6777 32.2384 50.1447 31.3862 48.9747 30.6201C47.799 29.8496 46.781 28.8189 45.9847 27.5929C45.1637 26.3053 44.7527 24.7222 44.7527 22.8426C44.7527 19.8154 45.6847 17.5533 47.5507 16.0574C49.4487 14.5603 51.9307 13.8129 54.9977 13.8129C57.4007 13.8129 59.4877 14.3696 61.2587 15.483C63.0617 16.5964 63.9627 18.2324 63.9627 20.3887C63.9627 21.6421 63.5667 22.6861 62.7767 23.5217C62.0177 24.322 61.0217 24.7222 59.7887 24.7222C59.0607 24.6869 58.5077 24.4951 58.1287 24.1479C57.7487 23.7653 57.5587 23.417 57.5587 23.1039C57.5587 23.0686 57.7647 22.9474 58.1757 22.7379C58.6187 22.5295 58.9977 22.2165 59.3137 21.7987C59.6617 21.3808 59.8357 20.8065 59.8357 20.0767C59.8357 18.7891 59.3777 17.7793 58.4607 17.0484C57.5747 16.3175 56.4367 15.9526 55.0447 15.9526C53.1167 15.9526 51.6457 16.4575 50.6347 17.4662C49.6537 18.4407 49.1637 19.6589 49.1637 21.1207C49.1637 22.3377 49.4637 23.3652 50.0647 24.1997C50.6647 25 51.6297 25.8004 52.9577 26.6007C54.1093 27.2682 55.2799 27.895 56.4677 28.4803C58.4917 29.489 60.0887 30.4117 61.2587 31.2473C62.4634 32.0859 63.484 33.2092 64.2467 34.5358C65.0687 35.8917 65.4807 37.5806 65.4807 39.598C65.4807 41.3387 64.9747 42.9217 63.9627 44.3494C62.9827 45.7406 61.6377 46.8364 59.9307 47.6367C58.2547 48.4371 56.4047 48.8372 54.3807 48.8372ZM78.3937 48.4205C76.2437 48.4205 74.5357 47.7062 73.2707 46.2797C72.0057 44.8531 71.3737 42.9736 71.3737 40.642V30.985C71.3737 30.081 71.3417 29.4195 71.2787 29.0017C71.2477 28.585 71.0577 28.219 70.7087 27.906C70.3617 27.5929 69.7767 27.4363 68.9547 27.4363C68.5747 27.4363 68.2907 27.3845 68.1007 27.2798C67.9107 27.1409 67.8167 26.8443 67.8167 26.3924C67.8167 26.1829 67.8797 25.9922 68.0067 25.8191C68.1327 25.6097 68.3227 25.4884 68.5757 25.4531C70.5677 25.1389 72.2757 24.6869 73.6977 24.095C74.1407 23.9219 74.5037 23.8171 74.7887 23.7819H74.9307C75.4367 23.7819 75.6907 24.1126 75.6907 24.774V40.5902C75.6907 42.1909 76.1487 43.4266 77.0657 44.2964C77.9546 45.1204 79.0825 45.5648 80.2437 45.5488C81.7297 45.5488 82.9937 45.1486 84.0377 44.3483C85.0817 43.5479 85.7777 42.7476 86.1247 41.9472V30.9861C86.1247 30.081 86.0937 29.4206 86.0307 29.0017C85.9987 28.585 85.8087 28.219 85.4607 27.906C85.1127 27.5929 84.5277 27.4363 83.7057 27.4363C83.3257 27.4363 83.0417 27.3845 82.8527 27.2798C82.6627 27.1409 82.5677 26.8443 82.5677 26.3924C82.5677 26.1829 82.6307 25.9922 82.7577 25.8191C82.8837 25.6097 83.0737 25.4884 83.3267 25.4531C85.3187 25.1389 87.0267 24.6869 88.4497 24.095C88.8917 23.9219 89.2557 23.8171 89.5397 23.7819H89.6827C90.1887 23.7819 90.4417 24.1126 90.4417 24.774V42.8358C90.4417 44.8895 91.6907 45.9159 94.1887 45.9159C94.7257 45.9159 94.9947 46.2466 94.9947 46.908C94.9947 47.3942 94.7257 47.6907 94.1887 47.7944L86.5517 48.3687C86.3307 48.3687 86.2037 48.2816 86.1717 48.1085C86.1417 47.9685 86.1247 47.7084 86.1247 47.3258V44.4012H86.0307C85.3048 45.1529 84.5612 45.8836 83.8007 46.5927C83.2317 47.08 82.4887 47.4978 81.5707 47.8462C80.6857 48.2287 79.6267 48.4194 78.3937 48.4194V48.4205ZM97.5897 47.9509C97.4792 47.9503 97.3703 47.9217 97.2714 47.8672C97.1726 47.8127 97.0865 47.7339 97.0197 47.6367C96.8937 47.4284 96.8297 47.1847 96.8297 46.9069C96.8617 46.4549 96.9567 46.1926 97.1147 46.1242C97.2737 46.0195 97.5577 45.9666 97.9687 45.9666C98.7907 45.9666 99.3757 45.81 99.7237 45.497C100.072 45.1839 100.262 44.8179 100.293 44.4012C100.357 43.9823 100.388 43.3219 100.388 42.4168V30.4635C100.388 29.5596 100.357 28.8981 100.293 28.4792C100.262 28.0625 100.072 27.6965 99.7237 27.3845C99.3757 27.0714 98.7907 26.9138 97.9687 26.9138C97.5887 26.9138 97.3047 26.862 97.1157 26.7573C96.9257 26.6183 96.8307 26.3229 96.8307 25.8698C96.8307 25.6615 96.8937 25.4696 97.0207 25.2966C97.1467 25.0871 97.3367 24.9659 97.5897 24.9306C99.6447 24.5822 101.337 24.1302 102.665 23.5735C103.203 23.3993 103.566 23.2946 103.756 23.2604H103.898C104.404 23.2604 104.657 23.5912 104.657 24.2526V27.4881H104.799C105.906 26.27 107.029 25.3131 108.167 24.6175C109.306 23.8866 110.333 23.5217 111.25 23.5217C112.294 23.5217 113.116 23.9561 113.717 24.8258C114.349 25.6615 114.665 26.636 114.665 27.7494C114.665 28.7239 114.397 29.5937 113.859 30.3588C113.321 31.125 112.578 31.5075 111.63 31.5075C111.217 31.5155 110.809 31.4078 110.444 31.1944C110.128 30.985 109.954 30.8119 109.922 30.673C109.954 30.6035 110.112 30.3941 110.396 30.0457C110.681 29.6632 110.823 29.2288 110.823 28.7416C110.823 28.1143 110.665 27.6105 110.349 27.228C110.064 26.8443 109.669 26.6536 109.163 26.6536C108.626 26.6536 107.946 26.9491 107.124 27.5411C106.301 28.0978 105.495 28.811 104.705 29.6808V42.4168C104.705 43.3219 104.736 43.9823 104.799 44.4012C104.863 44.8179 105.068 45.1839 105.416 45.497C105.764 45.81 106.349 45.9666 107.171 45.9666H107.456C107.709 45.9666 107.898 46.0195 108.025 46.1231C108.151 46.2278 108.23 46.4891 108.262 46.9058C108.262 47.1847 108.199 47.4284 108.072 47.6367C107.946 47.8462 107.756 47.9509 107.503 47.9509C105.844 47.8515 104.184 47.799 102.523 47.7933C101.1 47.7933 99.4557 47.8473 97.5897 47.9509ZM171.257 48.4205C169.107 48.4205 167.194 47.8627 165.518 46.7493C163.842 45.6017 162.53 44.1046 161.581 42.2603C160.676 40.4355 160.204 38.3889 160.206 36.3095C160.206 33.7002 160.759 31.438 161.866 29.5243C162.973 27.5752 164.38 26.0958 166.087 25.0871C167.795 24.0431 169.518 23.5217 171.257 23.5217C173.408 23.5217 175.321 24.095 176.997 25.2437C178.641 26.3204 179.986 27.8729 180.886 29.7326C181.822 31.5264 182.313 33.5608 182.309 35.6305C182.309 38.241 181.74 40.5207 180.602 42.4698C179.495 44.3835 178.088 45.8618 176.38 46.9058C174.673 47.9156 172.965 48.4205 171.257 48.4205ZM171.257 46.4891C173.408 46.4891 174.973 45.4793 175.953 43.4608C176.965 41.4434 177.471 38.8329 177.471 35.6316C177.471 32.6386 176.949 30.2034 175.906 28.3227C174.894 26.41 173.344 25.4531 171.257 25.4531C169.076 25.4531 167.495 26.4453 166.514 28.4285C165.534 30.4117 165.044 33.0034 165.044 36.2059C165.044 39.1978 165.55 41.6694 166.562 43.6174C167.574 45.5322 169.139 46.4891 171.257 46.4891ZM194.261 48.6807C192.711 48.6807 191.383 48.0545 190.276 46.8022C189.17 45.5488 188.616 43.7574 188.616 41.4258V26.0793L185.865 26.184C185.773 26.1848 185.682 26.1616 185.599 26.1162C185.517 26.0708 185.445 26.0045 185.391 25.9227C185.266 25.7229 185.2 25.486 185.201 25.2437C185.201 24.9306 185.249 24.6704 185.343 24.461C185.47 24.2173 185.644 24.0784 185.865 24.0431C186.972 23.8006 187.826 23.417 188.427 22.8955C189.059 22.3377 189.518 21.7468 189.802 21.1207C190.087 20.4592 190.435 19.4671 190.846 18.1442C191.004 17.6922 191.352 17.4662 191.889 17.4662C192.11 17.4662 192.332 17.5357 192.553 17.6757C192.774 17.7793 192.885 17.9535 192.885 18.1971L192.553 24.1479L198.103 23.7819H198.198C198.609 23.7819 198.814 24.1126 198.814 24.774C198.814 25.1566 198.751 25.5226 198.624 25.8698C198.53 26.184 198.403 26.3405 198.245 26.3405L192.933 26.184V42.052C192.933 43.2007 193.138 44.1575 193.549 44.9226C193.992 45.6888 194.703 46.0713 195.684 46.0713C196.664 46.0713 197.534 45.8795 198.292 45.497C198.704 45.3228 198.956 45.2357 199.051 45.2357C199.273 45.2357 199.447 45.3404 199.573 45.5488C199.7 45.7229 199.826 45.9677 199.953 46.2797C199.986 46.3617 200.002 46.451 200 46.5409C200 46.6798 199.905 46.8364 199.715 47.0105C198.798 47.672 197.929 48.1074 197.107 48.3158C196.316 48.5583 195.367 48.6807 194.261 48.6807ZM117.597 47.6367C117.723 47.8462 117.913 47.9498 118.166 47.9498C119.809 47.8504 121.453 47.7982 123.099 47.7933C125.218 47.7933 127.194 47.8462 129.028 47.9498C129.132 47.9524 129.235 47.9249 129.327 47.8699C129.418 47.815 129.495 47.7346 129.55 47.6367C129.676 47.4273 129.739 47.1847 129.739 46.9058C129.708 46.4891 129.629 46.2278 129.502 46.1231C129.407 46.0195 129.218 45.9666 128.933 45.9666H128.648C127.605 45.9666 126.862 45.8795 126.419 45.7053C125.976 45.5322 125.676 45.218 125.518 44.7661C125.36 44.2788 125.281 43.4961 125.281 42.4179V26.1818H130.309C130.419 26.1812 130.528 26.1527 130.626 26.0984C130.725 26.0441 130.811 25.9655 130.878 25.8687C131.036 25.6604 131.115 25.4167 131.115 25.1378C131.083 24.7211 130.988 24.4598 130.83 24.3551C130.704 24.2162 130.498 24.1457 130.214 24.1457H125.281V21.0148C125.281 19.3447 125.344 17.8829 125.47 16.6295C125.588 15.3712 125.961 14.1581 126.561 13.0798C127.162 12.0016 128.095 11.4626 129.36 11.4626C129.505 11.4626 129.646 11.4714 129.782 11.4901C129.764 10.9053 129.799 10.32 129.886 9.74281C129.821 9.74085 129.756 9.73974 129.692 9.7395C126.909 9.80895 124.743 10.9742 123.194 13.2374C121.676 15.4643 120.917 18.3702 120.917 21.9541V24.1468H118.071C117.66 24.1468 117.375 24.1986 117.217 24.3033C117.059 24.3728 116.964 24.6517 116.933 25.1378C116.933 25.4167 116.996 25.6604 117.122 25.8687C117.281 26.0782 117.486 26.1829 117.739 26.1829H120.917V42.4168C120.917 43.3572 120.885 44.0352 120.822 44.453C120.791 44.8355 120.601 45.1839 120.253 45.497C119.905 45.81 119.32 45.9666 118.498 45.9666C118.087 45.9666 117.802 46.0195 117.644 46.1231C117.518 46.1926 117.439 46.4538 117.407 46.9058C117.407 47.1847 117.47 47.4284 117.597 47.6367Z" fill="#9C9C9C"/>
<path fill-rule="evenodd" clip-rule="evenodd" d="M142.952 11.1911C142.951 11.9534 142.814 12.708 142.549 13.4119C142.284 14.1158 141.895 14.7552 141.406 15.2937C140.917 15.8321 140.336 16.259 139.697 16.5501C139.058 16.8411 138.373 16.9905 137.682 16.9898C136.285 16.9909 134.946 16.3807 133.958 15.2933C132.969 14.206 132.413 12.7304 132.412 11.1911C132.412 10.4288 132.549 9.67401 132.814 8.96991C133.079 8.26581 133.468 7.62617 133.957 7.08751C134.446 6.54885 135.027 6.12173 135.666 5.83052C136.305 5.53932 136.99 5.38973 137.682 5.39031C138.373 5.38959 139.058 5.53907 139.697 5.83023C140.337 6.12138 140.917 6.5485 141.407 7.08719C141.896 7.62587 142.285 8.26557 142.55 8.96974C142.815 9.6739 142.951 10.4287 142.952 11.1911ZM137.682 14.0905C138.027 14.0909 138.37 14.0162 138.689 13.8707C139.009 13.7253 139.299 13.5118 139.544 13.2426C139.789 12.9733 139.983 12.6536 140.116 12.3016C140.248 11.9496 140.316 11.5723 140.317 11.1911C140.317 10.8099 140.248 10.4325 140.116 10.0804C139.983 9.72824 139.789 9.40836 139.544 9.139C139.3 8.86964 139.009 8.65609 138.69 8.51054C138.37 8.36499 138.028 8.29029 137.682 8.29073C136.984 8.29043 136.314 8.59563 135.82 9.13926C135.326 9.68289 135.048 10.4205 135.047 11.19C135.048 11.9598 135.326 12.6977 135.82 13.2415C136.314 13.7854 136.983 14.0907 137.682 14.0905ZM135.372 19.5132V47.481C135.372 47.793 135.452 48.0367 135.61 48.2108C135.768 48.4203 135.989 48.5239 136.274 48.5239C136.558 48.5239 136.795 48.385 136.985 48.1072C137.175 47.8636 137.349 47.4976 137.507 47.0103C137.665 46.5231 137.807 46.1405 137.934 45.8616H138.171C140.226 47.567 142.661 48.4192 145.475 48.4192C147.373 48.4192 149.159 47.8625 150.835 46.7491C152.511 45.6356 153.839 44.122 154.82 42.2072C155.831 40.2592 156.337 38.1195 156.337 35.7879C156.337 33.421 155.895 31.3166 155.009 29.4711C154.156 27.5926 152.97 26.1309 151.452 25.0869C149.934 24.0429 148.242 23.5215 146.377 23.5215C145.238 23.5215 144.084 23.7817 142.914 24.3042C141.776 24.7914 140.748 25.5389 139.831 26.5487H139.689V19.608C138.269 20.0142 136.775 19.9814 135.372 19.5132ZM149.697 43.7737C148.527 45.6885 146.977 46.6454 145.049 46.6454C144.037 46.6454 143.136 46.4018 142.345 45.9145C141.586 45.4273 140.969 44.8529 140.495 44.1915C140.052 43.4959 139.784 42.8686 139.689 42.313V28.533C141.048 26.9312 142.724 26.1309 144.717 26.1309C146.962 26.1309 148.653 27.1054 149.792 29.0544C150.93 30.9682 151.499 33.2821 151.499 35.9962C151.499 39.2329 150.899 41.8257 149.697 43.7737ZM12.6997 0.720547C13.0352 0.457043 13.4368 0.31543 13.8487 0.31543C14.2606 0.31543 14.6623 0.457043 14.9977 0.720547C23.5577 7.4496 27.4377 15.5159 27.6827 27.09C27.7957 32.6163 27.3127 37.6763 25.8417 42.0473C24.3317 46.4216 21.6487 50.4619 17.6987 53.875C17.4528 54.0856 17.1652 54.2294 16.8594 54.2945C16.5536 54.3596 16.2382 54.3443 15.9387 54.2498C14.7287 53.8672 14.5227 52.2886 13.8487 51.3053C13.1747 52.2886 12.9707 53.8661 11.7587 54.2487C11.4594 54.343 11.1442 54.3583 10.8386 54.2931C10.5329 54.228 10.2456 54.0844 9.99973 53.8739C6.04973 50.4619 3.36573 46.4216 1.85673 42.0473C0.386726 37.6763 -0.0972739 32.6163 0.0157261 27.09C0.259726 15.5159 4.13973 7.44849 12.6997 0.720547ZM17.1257 48.8899C19.5977 46.3875 21.0877 43.659 22.1397 40.5205C23.4647 36.6841 23.8467 32.4443 23.7317 27.1914C23.5417 18.166 21.6217 12.2935 15.8087 6.84107V22.7906C18.0817 23.4344 19.1017 25.8883 19.1017 28.5892C19.1017 31.2923 18.0817 33.7462 15.8087 34.39V47.4392C15.8087 47.4392 16.8647 48.5118 17.1257 48.8899ZM10.5377 48.8899C8.06573 46.3875 6.61073 43.659 5.55773 40.5205C4.23373 36.6841 3.85173 32.4443 3.96773 27.1914C4.15773 18.1848 6.06673 12.2869 11.8557 6.84107V22.7906C9.58273 23.4344 8.56173 25.8883 8.56173 28.5892C8.56173 31.2923 9.58173 33.7462 11.8557 34.39V47.4392C11.8557 47.4392 10.7897 48.525 10.5377 48.8899ZM13.8317 25.6899C13.1336 25.6893 12.4638 25.9944 11.9697 26.5381C11.4756 27.0818 11.1975 27.8196 11.1967 28.5892C11.1967 30.1921 12.3767 31.4896 13.8317 31.4896C14.5299 31.4902 15.1996 31.1851 15.6938 30.6414C16.1879 30.0977 16.4659 29.36 16.4667 28.5903C16.4667 26.9885 15.2867 25.6899 13.8317 25.6899Z" fill="#9C9C9C"/>
</svg>
