<svg width="196" height="36" viewBox="0 0 196 36" fill="none" xmlns="http://www.w3.org/2000/svg">
<path d="M21.644 35.3642C20.4706 35.399 19.3082 35.1074 18.264 34.5165C17.2254 33.9297 16.3395 33.0609 15.69 31.992C13.6449 34.0629 10.9953 35.259 8.22 35.3642C3.233 35.3642 0.53 31.5455 1.443 26.071C2.137 21.9546 5.242 17.8295 6.11 14.5179C4.43 13.4066 1.936 12.6327 0.767 14.9037L0 14.3977C0.612 11.9085 2.091 10.2527 4.228 10.2527C6.365 10.2527 7.945 11.6307 9.982 10.3618H11.607C10.74 15.3204 8.548 19.2868 7.379 26.2298C6.667 30.485 7.991 32.4186 10.229 32.4186C11.8822 32.1945 13.403 31.3082 14.502 29.9283C13.6095 27.5071 13.1596 24.9153 13.178 22.3019C13.178 16.2718 15.726 9.91533 20 9.91533C22.192 9.91533 23.817 11.5711 23.817 15.499C23.817 19.4257 21.626 25.5055 18.831 29.3231C18.982 30.2326 19.421 31.0561 20.071 31.6525C20.721 32.2478 21.542 32.5785 22.393 32.5873C26.466 32.5873 29.315 25.9508 29.315 19.8127C29.315 13.6745 26.868 13.9512 27.078 11.8787C27.0969 11.6197 27.162 11.3674 27.2696 11.1362C27.3772 10.905 27.5252 10.6996 27.705 10.5316C28.069 10.1898 28.543 10.019 29.023 10.0542C30.293 10.0542 31.963 11.7993 31.963 18.8812C31.963 27.9054 27.544 35.3642 21.644 35.3642ZM20.722 13.0296C19.452 13.0296 18.228 18.1172 18.073 23.3734C18.0137 24.4974 18.0321 25.6248 18.128 26.7457C20.0432 23.3074 21.2119 19.4279 21.543 15.4097C21.534 13.6238 21.233 13.0285 20.721 13.0285L20.722 13.0296ZM40.329 35.136C39.7964 35.1958 39.2584 35.1278 38.752 34.9365C38.2475 34.7465 37.7868 34.4372 37.402 34.0303C37.0197 33.6258 36.7233 33.133 36.534 32.5873C36.3451 32.0439 36.2686 31.4609 36.31 30.8808C36.31 28.4511 39.215 16.3412 39.215 14.3481C39.215 13.4066 39.014 12.851 38.247 12.851C37.3912 13.0024 36.5942 13.4262 35.954 14.0703V12.3549C37.2835 11.0254 38.9997 10.2624 40.794 10.2031C41.3299 10.1505 41.8698 10.2257 42.377 10.4235C42.883 10.622 43.343 10.9362 43.726 11.3473C44.108 11.7574 44.404 12.2535 44.592 12.8025C44.779 13.3493 44.855 13.9347 44.812 14.5167C44.812 16.9464 41.909 29.0067 41.909 30.9899C41.909 31.9325 42.109 32.4881 42.877 32.4881C43.7212 32.3334 44.5126 31.9326 45.169 31.3273V32.9831C43.8445 34.3216 42.1253 35.0864 40.329 35.136ZM43.89 0.13594C44.288 0.122711 44.684 0.202084 45.051 0.371853C45.417 0.541623 45.746 0.795175 46.012 1.11597C46.279 1.43433 46.4787 1.814 46.5967 2.22766C46.7146 2.64132 46.7478 3.07866 46.694 3.50818C46.5958 4.42527 46.1972 5.27126 45.573 5.88716C44.9435 6.50869 44.1329 6.86107 43.288 6.88042C42.8905 6.8943 42.4949 6.81385 42.128 6.64451C41.7623 6.47609 41.4341 6.22221 41.166 5.90039C40.899 5.58204 40.6993 5.20236 40.5813 4.7887C40.4634 4.37505 40.4302 3.93771 40.484 3.50818C40.5823 2.59112 40.9809 1.74517 41.605 1.1292C42.2347 0.508154 43.0453 0.155089 43.89 0.13594ZM55.196 29.9393C54.941 31.4364 55.096 32.4782 56.064 32.4782C56.9112 32.3344 57.7051 31.9323 58.356 31.3173L58.447 32.9831C57.1176 34.313 55.4014 35.0764 53.607 35.136C50.447 35.136 49.224 32.6468 49.69 29.5524L52.795 10.3618C53.827 3.95465 53.47 3.11132 50.31 3.11132L50.511 1.56465L60.036 0.195469L55.196 29.9393ZM81.982 29.8886C81.726 31.3868 81.826 32.4881 82.849 32.4881C83.6981 32.3132 84.4896 31.8919 85.142 31.2677V32.9831C83.8212 34.328 82.0996 35.0937 80.302 35.136C79.3927 35.2087 78.4912 34.9079 77.771 34.2916C77.0565 33.6814 76.5772 32.7963 76.429 31.8134C75.6625 32.9142 74.6786 33.808 73.552 34.4272C72.4197 35.0505 71.1745 35.3843 69.909 35.4039C63.854 35.4039 61.306 29.602 62.475 22.6293C63.644 15.6577 69.095 9.96494 75.26 9.96494C76.7175 9.93128 78.1591 10.3028 79.452 11.0453L79.607 10.1634C80.813 3.33951 80.256 3.11132 77.096 3.11132L77.251 1.56465L86.821 0.195469L81.981 29.8897L81.982 29.8886ZM75.415 12.4641C71.899 12.4641 69.562 16.996 68.639 22.5797C67.671 28.4412 68.283 32.498 71.589 32.498C73.826 32.498 76.374 29.5215 77.141 24.9796L79.023 13.4761C77.9348 12.7601 76.6812 12.4085 75.415 12.4641ZM98.073 35.4127C90.995 35.4127 89.059 29.8787 89.927 24.5728L92.237 10.3618C93.306 3.94583 92.95 3.06171 89.79 3.06171L89.99 1.51504L99.543 0.195469L97.607 12.2458C99.1008 10.839 100.986 10.0377 102.95 9.97486C109.114 9.97486 112.009 15.6677 110.895 22.6392C109.781 29.6119 104.11 35.4127 98.073 35.4127ZM101.379 12.603C100.352 12.6251 99.3576 13.0005 98.534 13.6767C97.7166 14.3476 97.1139 15.2877 96.813 16.3611L95.388 25.2872C94.52 30.5931 96.256 32.7549 98.448 32.7549C101.653 32.7549 103.644 28.8876 104.712 22.5301C105.662 16.8373 104.795 12.6327 101.37 12.6327L101.379 12.603ZM120.548 25.8527C120.548 30.108 122.429 32.3789 126.027 32.3789C127.854 32.3789 130.511 31.0009 132.192 29.1754L132.904 30.9403C131.693 32.3327 130.242 33.445 128.637 34.2122C127.025 34.9826 125.291 35.394 123.534 35.4227C118.192 35.4227 114.575 31.109 114.575 25.2475C114.575 16.5694 121.196 9.98478 127.562 9.98478C131.434 9.98478 133.616 12.3053 133.616 15.0128C133.571 19.2174 129.9 23.939 120.548 25.8527ZM127.114 12.5236C124.21 12.5236 121.416 17.1151 120.648 23.6909C126.502 22.1432 128.995 17.8295 129.05 15.0624C129.041 13.5158 128.374 12.5236 127.105 12.5236H127.114ZM154.393 35.136C153.484 35.2086 152.582 34.9078 151.862 34.2916C151.148 33.6813 150.669 32.7962 150.521 31.8134C149.783 32.9137 148.822 33.8093 147.715 34.4294C146.603 35.0534 145.376 35.3865 144.128 35.4028C138.174 35.4028 135.626 29.602 136.822 22.6293C138.018 15.6577 143.379 9.97376 149.562 9.97376C150.872 9.96645 152.17 10.2503 153.379 10.8083H159.187L156.073 29.8886C155.817 31.3868 155.918 32.4881 156.941 32.4881C157.79 32.3129 158.581 31.8917 159.233 31.2677V32.9831C157.912 34.3279 156.191 35.0936 154.393 35.136ZM149.708 12.4641C146.292 12.4641 143.9 16.996 142.986 22.5797C142.018 28.4412 142.685 32.498 145.726 32.498C148.064 32.498 150.566 29.4036 151.279 24.9796L153.16 13.4761C152.133 12.7601 150.931 12.407 149.717 12.4641H149.708ZM177.005 16.5C175.626 16.5 175.269 15.3402 174.868 14.1199C174.731 13.503 174.402 12.9585 173.939 12.5809C173.472 12.2002 172.9 12.0083 172.32 12.0375C171.566 11.9935 170.824 12.2581 170.237 12.7805C169.654 13.2976 169.27 14.0381 169.16 14.8541C169.005 16.3522 170.027 17.6211 171.963 19.4456L174.557 21.7661C175.521 22.5574 176.269 23.6251 176.721 24.8529C177.17 26.0765 177.303 27.4104 177.105 28.709C176.447 32.8541 173.288 35.4028 169.059 35.4028C163.963 35.4028 160.712 32.1397 161.068 29.9283C161.151 29.3473 161.421 28.8149 161.831 28.4312C162.241 28.0454 162.764 27.8315 163.306 27.826C164.63 27.826 165.132 28.9273 165.543 30.3649C165.807 31.1917 166.314 31.8994 166.986 32.38C167.66 32.8611 168.459 33.0867 169.26 33.0227C170.052 33.0641 170.829 32.7823 171.444 32.2312C172.053 31.6848 172.454 30.9056 172.566 30.0485C172.767 28.0641 171.653 26.8449 169.562 24.7911L167.014 22.3614C166.118 21.6192 165.418 20.6271 164.986 19.4875C164.556 18.3535 164.411 17.1129 164.566 15.8959C165.023 13.238 167.306 9.9451 172.557 9.9451C176.63 9.9451 179.178 12.4343 178.95 14.4275C178.924 14.9772 178.71 15.4955 178.35 15.8771C177.99 16.2607 177.509 16.4834 177.005 16.5ZM195.644 13.0296H190.703L188.311 27.7268C187.799 30.7716 188.21 32.1507 189.735 32.1507C190.548 32.1507 191.826 31.6547 193.653 29.6119L193.753 31.7638C192.923 32.8306 191.895 33.6878 190.738 34.2773C189.576 34.8701 188.312 35.1828 187.032 35.1945C183.571 35.1945 181.836 32.5377 182.658 27.6177L185.05 13.0296H181.187L181.489 10.7587H185.388L186.411 4.18285H192.11L191.041 10.7576H195.982L195.644 13.0296Z" fill="#9C9C9C"/>
</svg>
