<svg width="134" height="36" viewBox="0 0 134 36" fill="none" xmlns="http://www.w3.org/2000/svg">
<path d="M5.61504 13.934C6.26183 12.7531 7.14817 11.7936 8.27406 11.0555C9.4239 10.3174 10.7295 9.94839 12.1907 9.94839C13.8915 9.94839 15.4246 10.465 16.7901 11.4983C18.1795 12.5316 19.2694 14.0078 20.06 15.9267C20.8744 17.8162 21.2817 20.0156 21.2817 22.5251C21.2817 25.0345 20.8744 27.2635 20.06 29.212C19.2694 31.131 18.1795 32.6219 16.7901 33.6847C15.4246 34.7475 13.8915 35.2789 12.1907 35.2789C10.7055 35.2789 9.39994 34.9246 8.27406 34.2161C7.17212 33.478 6.28578 32.5333 5.61504 31.3819V34.8804H0.584473V2.1101H5.61504V13.934ZM16.1433 22.5251C16.1433 21.0489 15.8918 19.7795 15.3887 18.7166C14.9096 17.6243 14.2628 16.7977 13.4484 16.2367C12.6622 15.6772 11.769 15.3867 10.8612 15.3953C9.95091 15.3953 9.08853 15.6906 8.27406 16.281C7.48354 16.842 6.83675 17.6686 6.33369 18.7609C5.85459 19.8533 5.61504 21.1375 5.61504 22.6137C5.61504 24.0898 5.85459 25.374 6.33369 26.4664C6.83675 27.5587 7.48354 28.4001 8.27406 28.9906C9.08853 29.5515 9.95091 29.832 10.8612 29.832C11.7955 29.832 12.6578 29.5367 13.4484 28.9463C14.2628 28.3558 14.9096 27.5144 15.3887 26.4221C15.8918 25.3297 16.1433 24.0307 16.1433 22.5251ZM27.488 7.4242C26.6017 7.4242 25.8591 7.08468 25.2602 6.40566C24.6853 5.69711 24.3978 4.82619 24.3978 3.7929C24.3978 2.7596 24.6853 1.90344 25.2602 1.22442C25.8591 0.515871 26.6017 0.161598 27.488 0.161598C28.3744 0.161598 29.105 0.515871 29.6799 1.22442C30.2788 1.90344 30.5782 2.7596 30.5782 3.7929C30.5782 4.82619 30.2788 5.69711 29.6799 6.40566C29.105 7.08468 28.3744 7.4242 27.488 7.4242ZM29.9674 10.3469V34.8804H24.9368V10.3469H29.9674ZM46.724 34.8804L39.9686 24.4293V34.8804H34.9381V2.1101H39.9686V20.7537L46.6521 10.3469H53.1918L44.4243 22.6579L53.2637 34.8804H46.724ZM53.63 22.6137C53.63 20.0747 54.0492 17.8605 54.8877 15.971C55.7261 14.0521 56.8879 12.5759 58.3731 11.5426C59.8583 10.4798 61.5591 9.94839 63.4756 9.94839C65.9429 9.94839 67.9791 10.716 69.5841 12.2512C71.213 13.7568 72.303 15.8825 72.854 18.6281H67.4291C67.1417 17.5653 66.6506 16.7386 65.9559 16.1482C65.2852 15.5282 64.4467 15.2182 63.4406 15.2182C62.0033 15.2182 60.8654 15.8677 60.027 17.1667C59.1886 18.4362 58.7694 20.2518 58.7694 22.6137C58.7694 24.9459 59.1886 26.7616 60.027 28.0606C60.8654 29.3301 62.0033 29.9648 63.4406 29.9648C65.4768 29.9648 66.8063 28.843 67.4291 26.5992H72.855C72.304 29.2563 71.214 31.3671 69.5851 32.9319C67.9561 34.4966 65.92 35.2789 63.4766 35.2789C61.5601 35.2789 59.8593 34.7623 58.3741 33.729C56.9007 32.6812 55.6936 31.1476 54.8887 29.3006C54.0502 27.3816 53.63 25.1526 53.63 22.6137ZM80.5725 14.1554C81.1893 12.8927 82.0544 11.8418 83.0878 11.0998C84.1418 10.3617 85.3396 9.99267 86.681 9.99267V16.5024H85.3515C83.7705 16.5024 82.5727 16.96 81.7583 17.8752C80.9678 18.7905 80.5725 20.3847 80.5725 22.6579V34.8804H75.5419V10.3469H80.5725V14.1554ZM102.106 31.3819C101.555 32.5038 100.657 33.4485 99.4112 34.2161C98.1655 34.9542 96.824 35.3232 95.3867 35.3232C94.1411 35.3232 93.0152 35.0132 92.0091 34.3932C91.0029 33.7733 90.2124 32.9171 89.6375 31.8248C89.0626 30.7324 88.7751 29.4777 88.7751 28.0606C88.7751 25.7873 89.4578 23.9274 90.8233 22.4808C92.2127 21.0342 94.2848 20.3109 97.0396 20.3109H102.106C102.058 18.7462 101.687 17.5062 100.992 16.591C100.321 15.6463 99.3872 15.1739 98.1895 15.1739C97.1354 15.1739 96.2611 15.5282 95.5664 16.2367C94.8717 16.9158 94.4285 17.8753 94.2369 19.1152H89.2063C89.4459 17.3438 89.9609 15.7644 90.7514 14.3768C91.5588 12.9671 92.6481 11.8382 93.9135 11.0998C95.231 10.3027 96.7042 9.90411 98.3332 9.90411C100.01 9.90411 101.519 10.3322 102.861 11.1883C104.193 12.0062 105.304 13.2831 106.059 14.8639C106.825 16.4582 107.209 18.3329 107.209 20.488V34.8804H102.106V31.3819ZM96.86 30.3191C97.6984 30.3191 98.5129 30.0977 99.3034 29.6548C100.118 29.212 100.789 28.5477 101.316 27.662C101.843 26.7764 102.106 25.7283 102.106 24.5179V24.3407H97.3271C96.1772 24.3407 95.3149 24.6212 94.7399 25.1821C94.189 25.7431 93.9135 26.4811 93.9135 27.3963C93.9135 28.282 94.165 28.9906 94.6681 29.522C95.1951 30.0534 95.9257 30.3191 96.86 30.3191ZM117.818 15.4396V34.8804H112.715V15.4396H110.451V10.3469H112.715V9.10699C112.715 6.09567 113.41 3.88146 114.799 2.46437C116.189 1.04728 118.285 0.383019 121.088 0.471587V5.69711C119.866 5.66759 119.015 5.91853 118.536 6.44994C118.057 6.98135 117.818 7.94084 117.818 9.32841V10.3469H124.355V4.28002H129.422V10.3469H133.878V15.4396H129.422V27.3078C129.422 28.1344 129.578 28.7396 129.889 29.1234C130.224 29.4777 130.775 29.6548 131.542 29.6548H133.878V34.8804H130.715C126.475 34.8804 124.355 32.3414 124.355 27.2635V15.4396H117.818Z" fill="white"/>
</svg>
