<svg width="32" height="32" viewBox="0 0 32 32" fill="none" xmlns="http://www.w3.org/2000/svg">
<g clip-path="url(#clip0_105_190)">
<circle cx="16" cy="16" r="16" fill="white"/>
<path d="M24.375 14.125H23.4525L21.54 8.5675C21.3817 8.10925 21.094 7.71327 20.7158 7.43298C20.3376 7.15269 19.8871 7.00157 19.425 7H17.625C17.0062 7 16.5 7.53437 16.5 8.1875C16.5 8.84062 17.0062 9.375 17.625 9.375H19.425L21.0675 14.125H15.6562L15.2513 12.9375H15.3525C15.9712 12.9375 16.4775 12.4031 16.4775 11.75C16.4775 11.0969 15.9712 10.5625 15.3525 10.5625H12C11.3812 10.5625 10.875 11.0969 10.875 11.75C10.875 12.4031 11.3812 12.9375 12 12.9375H12.8438L14.8912 18.875H14.1375C13.6425 16.2269 11.5387 14.2675 8.90625 14.1369C5.75625 13.9706 3 16.7375 3 20.0625C3 23.3875 5.475 26 8.625 26C11.3925 26 13.6312 23.9931 14.1375 21.25H18.8625C19.3575 23.8981 21.4613 25.8575 24.0938 25.9881C27.2437 26.1425 30 23.3875 30 20.0506C30 16.7375 27.525 14.125 24.375 14.125ZM9.75 21.25H11.7975C11.325 22.7106 9.9975 23.72 8.4 23.6131C6.72375 23.5062 5.32875 22.01 5.25 20.2288C5.17125 18.1506 6.67875 16.5 8.625 16.5C10.1213 16.5 11.3475 17.4856 11.7975 18.875H9.75C9.13125 18.875 8.625 19.4094 8.625 20.0625C8.625 20.7156 9.13125 21.25 9.75 21.25ZM18.8625 18.875H17.2875L16.4663 16.5H19.875C19.38 17.1887 19.02 17.9844 18.8625 18.875ZM24.24 23.625C22.5075 23.5538 21.045 21.9981 21 20.1575C20.9775 19.0175 21.4387 18.02 22.1812 17.355L22.8788 19.3738C23.0925 19.9913 23.7338 20.3119 24.3188 20.0863C24.9038 19.8606 25.2075 19.1837 24.9937 18.5662L24.285 16.5119L24.2963 16.5C24.7473 16.4838 25.1968 16.5642 25.6176 16.7364C26.0384 16.9086 26.4217 17.1691 26.7445 17.502C27.0673 17.835 27.3228 18.2335 27.4956 18.6736C27.6684 19.1137 27.755 19.5861 27.75 20.0625C27.75 22.105 26.1975 23.6963 24.24 23.625Z" fill="url(#paint0_linear_105_190)"/>
</g>
<defs>
<linearGradient id="paint0_linear_105_190" x1="16.5" y1="7" x2="16.5" y2="26" gradientUnits="userSpaceOnUse">
<stop stop-color="#FFB60D"/>
<stop offset="1" stop-color="#E59317"/>
</linearGradient>
<clipPath id="clip0_105_190">
<rect width="32" height="32" fill="white"/>
</clipPath>
</defs>
</svg>
